<svg width="12" height="21" viewBox="0 0 12 21" fill="none" xmlns="http://www.w3.org/2000/svg">
<path fill-rule="evenodd" clip-rule="evenodd" d="M5.61418 3.48725C7.52791 3.21952 9.02825 4.73901 9.21828 6.46358C9.435 8.42111 8.02138 9.97881 6.38771 10.1839C4.46398 10.4239 2.99034 8.92859 2.78696 7.22141C2.54691 5.23259 3.98051 3.71672 5.61418 3.48725ZM6.00097 20.5C6.54442 20.0445 8.77817 16.286 9.12824 15.6532C10.0518 13.9843 10.9486 12.0684 11.5188 10.0031C12.1922 7.56232 12.2622 5.35783 11.0553 3.37944C8.68149 -0.500842 3.26707 -0.410507 0.963266 3.35503C-0.250316 5.34385 -0.203678 7.50309 0.476462 9.97173C1.40665 13.3548 3.24704 16.5223 5.14076 19.3247C5.31746 19.5855 5.82093 20.347 6.00097 20.5Z" fill="#134B80"/>
</svg>
