<svg width="328" height="223" viewBox="0 0 328 223" fill="none" xmlns="http://www.w3.org/2000/svg">
<path d="M0 82L15 87.3164L15 223L0 82Z" fill="#0081B9"/>
<path d="M0 82L5.28375 97L328 97L0 82Z" fill="#0081B9"/>
<rect width="293" height="106" transform="translate(15 97)" fill="#0081B9"/>
<path d="M114.013 124.471L112.993 125.253C112.431 124.521 111.754 123.967 110.963 123.592C110.178 123.211 109.313 123.021 108.37 123.021C107.339 123.021 106.384 123.27 105.505 123.768C104.626 124.26 103.943 124.925 103.457 125.763C102.977 126.595 102.736 127.532 102.736 128.575C102.736 130.151 103.275 131.467 104.354 132.521C105.438 133.576 106.803 134.104 108.449 134.104C110.26 134.104 111.774 133.395 112.993 131.977L114.013 132.75C113.368 133.57 112.562 134.206 111.596 134.657C110.635 135.103 109.56 135.325 108.37 135.325C106.108 135.325 104.324 134.572 103.018 133.066C101.922 131.795 101.374 130.26 101.374 128.461C101.374 126.568 102.036 124.978 103.36 123.688C104.69 122.394 106.354 121.746 108.353 121.746C109.56 121.746 110.649 121.986 111.622 122.467C112.595 122.941 113.392 123.609 114.013 124.471ZM120.938 125.191C122.409 125.191 123.628 125.725 124.595 126.791C125.474 127.764 125.913 128.915 125.913 130.245C125.913 131.581 125.447 132.75 124.516 133.752C123.59 134.748 122.397 135.246 120.938 135.246C119.474 135.246 118.275 134.748 117.344 133.752C116.418 132.75 115.955 131.581 115.955 130.245C115.955 128.921 116.395 127.772 117.273 126.8C118.24 125.728 119.462 125.191 120.938 125.191ZM120.938 126.396C119.919 126.396 119.043 126.773 118.311 127.529C117.578 128.285 117.212 129.199 117.212 130.271C117.212 130.963 117.379 131.607 117.713 132.205C118.047 132.803 118.498 133.266 119.066 133.594C119.635 133.916 120.259 134.077 120.938 134.077C121.618 134.077 122.242 133.916 122.811 133.594C123.379 133.266 123.83 132.803 124.164 132.205C124.498 131.607 124.665 130.963 124.665 130.271C124.665 129.199 124.296 128.285 123.558 127.529C122.825 126.773 121.952 126.396 120.938 126.396ZM137.356 121.544V122.722C136.771 122.821 135.766 122.892 134.342 122.933C133.311 122.968 132.514 123.038 131.951 123.144C131.395 123.243 130.908 123.439 130.492 123.732C130.076 124.02 129.725 124.459 129.438 125.051C129.156 125.637 128.98 126.293 128.91 127.02L128.787 128.364C129.121 127.269 129.669 126.466 130.431 125.956C131.198 125.446 132.048 125.191 132.979 125.191C134.397 125.191 135.581 125.689 136.53 126.686C137.485 127.682 137.963 128.868 137.963 130.245C137.963 131.61 137.488 132.785 136.539 133.77C135.59 134.754 134.403 135.246 132.979 135.246C131.521 135.246 130.284 134.701 129.271 133.611C128.257 132.521 127.75 130.805 127.75 128.461C127.75 126.826 127.935 125.59 128.304 124.752C128.679 123.908 129.106 123.302 129.587 122.933C130.067 122.563 130.688 122.273 131.45 122.062C132.212 121.852 133.639 121.72 135.73 121.667C136.375 121.649 136.917 121.608 137.356 121.544ZM136.715 130.271C136.715 129.211 136.346 128.3 135.607 127.538C134.869 126.776 133.993 126.396 132.979 126.396C131.972 126.396 131.099 126.776 130.36 127.538C129.622 128.3 129.253 129.211 129.253 130.271C129.253 131.326 129.607 132.226 130.316 132.97C131.031 133.708 131.919 134.077 132.979 134.077C134.046 134.077 134.934 133.708 135.643 132.97C136.357 132.226 136.715 131.326 136.715 130.271ZM149.529 127.424L148.554 128.03C147.71 126.911 146.559 126.352 145.1 126.352C143.934 126.352 142.964 126.727 142.19 127.477C141.423 128.227 141.039 129.138 141.039 130.21C141.039 130.907 141.215 131.563 141.566 132.179C141.924 132.794 142.41 133.271 143.025 133.611C143.646 133.951 144.341 134.121 145.108 134.121C146.515 134.121 147.663 133.562 148.554 132.442L149.529 133.084C149.072 133.77 148.457 134.303 147.684 134.684C146.916 135.059 146.04 135.246 145.056 135.246C143.544 135.246 142.29 134.766 141.294 133.805C140.298 132.844 139.8 131.675 139.8 130.298C139.8 129.372 140.031 128.514 140.494 127.723C140.963 126.926 141.604 126.305 142.419 125.859C143.233 125.414 144.145 125.191 145.152 125.191C145.785 125.191 146.395 125.288 146.98 125.481C147.572 125.675 148.073 125.927 148.483 126.237C148.894 126.548 149.242 126.943 149.529 127.424ZM150.83 125.438H157.123V126.501H154.592V135H153.353V126.501H150.83V125.438ZM161.57 135H158.793V125.438H161.526C162.569 125.438 163.319 125.678 163.776 126.158C164.239 126.639 164.471 127.201 164.471 127.846C164.471 128.818 164.043 129.478 163.188 129.823C164.43 130.263 165.051 131.109 165.051 132.363C165.051 134.121 163.891 135 161.57 135ZM160.032 126.501V129.489H160.832C161.559 129.489 162.033 129.46 162.256 129.401C162.479 129.343 162.687 129.199 162.88 128.971C163.079 128.736 163.179 128.429 163.179 128.048C163.179 127.649 163.076 127.315 162.871 127.046C162.666 126.776 162.449 126.618 162.221 126.571C161.998 126.524 161.535 126.501 160.832 126.501H160.032ZM160.032 130.614V133.963H161.351C161.972 133.963 162.414 133.925 162.678 133.849C162.947 133.767 163.176 133.594 163.363 133.33C163.557 133.066 163.653 132.732 163.653 132.328C163.653 131.807 163.489 131.391 163.161 131.08C162.833 130.77 162.399 130.614 161.86 130.614H160.032ZM175.264 131.827L176.301 132.372C175.961 133.04 175.568 133.579 175.123 133.989C174.678 134.399 174.177 134.713 173.62 134.93C173.063 135.141 172.434 135.246 171.73 135.246C170.172 135.246 168.953 134.736 168.074 133.717C167.195 132.691 166.756 131.534 166.756 130.245C166.756 129.032 167.128 127.951 167.872 127.002C168.815 125.795 170.078 125.191 171.66 125.191C173.289 125.191 174.59 125.81 175.562 127.046C176.254 127.919 176.605 129.009 176.617 130.315H168.021C168.045 131.429 168.399 132.343 169.085 133.058C169.771 133.767 170.617 134.121 171.625 134.121C172.111 134.121 172.583 134.036 173.04 133.866C173.503 133.696 173.896 133.471 174.218 133.189C174.54 132.908 174.889 132.454 175.264 131.827ZM175.264 129.252C175.1 128.596 174.859 128.071 174.543 127.679C174.232 127.286 173.819 126.97 173.304 126.729C172.788 126.489 172.246 126.369 171.678 126.369C170.74 126.369 169.935 126.671 169.261 127.274C168.769 127.714 168.396 128.373 168.145 129.252H175.264ZM185.714 130.395H180.159V135H178.92V125.438H180.159V129.234H185.714V125.438H186.944V135H185.714V130.395ZM196.489 130.395H190.935V135H189.695V125.438H190.935V129.234H196.489V125.438H197.72V135H196.489V130.395ZM204.997 125.191C206.468 125.191 207.687 125.725 208.653 126.791C209.532 127.764 209.972 128.915 209.972 130.245C209.972 131.581 209.506 132.75 208.574 133.752C207.648 134.748 206.456 135.246 204.997 135.246C203.532 135.246 202.334 134.748 201.402 133.752C200.477 132.75 200.014 131.581 200.014 130.245C200.014 128.921 200.453 127.772 201.332 126.8C202.299 125.728 203.521 125.191 204.997 125.191ZM204.997 126.396C203.978 126.396 203.102 126.773 202.369 127.529C201.637 128.285 201.271 129.199 201.271 130.271C201.271 130.963 201.438 131.607 201.771 132.205C202.105 132.803 202.557 133.266 203.125 133.594C203.693 133.916 204.317 134.077 204.997 134.077C205.677 134.077 206.301 133.916 206.869 133.594C207.438 133.266 207.889 132.803 208.223 132.205C208.557 131.607 208.724 130.963 208.724 130.271C208.724 129.199 208.354 128.285 207.616 127.529C206.884 126.773 206.011 126.396 204.997 126.396ZM220.316 131.827L221.354 132.372C221.014 133.04 220.621 133.579 220.176 133.989C219.73 134.399 219.229 134.713 218.673 134.93C218.116 135.141 217.486 135.246 216.783 135.246C215.225 135.246 214.006 134.736 213.127 133.717C212.248 132.691 211.809 131.534 211.809 130.245C211.809 129.032 212.181 127.951 212.925 127.002C213.868 125.795 215.131 125.191 216.713 125.191C218.342 125.191 219.643 125.81 220.615 127.046C221.307 127.919 221.658 129.009 221.67 130.315H213.074C213.098 131.429 213.452 132.343 214.138 133.058C214.823 133.767 215.67 134.121 216.678 134.121C217.164 134.121 217.636 134.036 218.093 133.866C218.556 133.696 218.948 133.471 219.271 133.189C219.593 132.908 219.941 132.454 220.316 131.827ZM220.316 129.252C220.152 128.596 219.912 128.071 219.596 127.679C219.285 127.286 218.872 126.97 218.356 126.729C217.841 126.489 217.299 126.369 216.73 126.369C215.793 126.369 214.987 126.671 214.313 127.274C213.821 127.714 213.449 128.373 213.197 129.252H220.316ZM91.9873 147.438H93.2266V151.463L97.6475 147.438H99.3613L94.5186 151.814L99.748 157H98.0078L93.6133 152.579L93.2266 152.922V157H91.9873V147.438ZM101.04 147.438H102.262V149.195C102.748 148.527 103.308 148.026 103.94 147.692C104.573 147.358 105.279 147.191 106.059 147.191C107.418 147.191 108.581 147.681 109.548 148.659C110.515 149.638 110.998 150.815 110.998 152.192C110.998 153.599 110.518 154.794 109.557 155.778C108.602 156.757 107.447 157.246 106.094 157.246C105.332 157.246 104.632 157.088 103.993 156.771C103.354 156.455 102.777 155.983 102.262 155.356V160.498H101.04V147.438ZM105.962 148.378C104.896 148.378 103.996 148.75 103.264 149.494C102.537 150.238 102.174 151.164 102.174 152.271C102.174 152.998 102.335 153.651 102.657 154.231C102.985 154.812 103.451 155.271 104.055 155.611C104.664 155.951 105.306 156.121 105.979 156.121C106.642 156.121 107.263 155.951 107.843 155.611C108.429 155.266 108.895 154.785 109.24 154.17C109.586 153.555 109.759 152.91 109.759 152.236C109.759 151.557 109.586 150.912 109.24 150.303C108.9 149.693 108.44 149.222 107.86 148.888C107.28 148.548 106.647 148.378 105.962 148.378ZM112.281 147.438H113.582L116.869 154.803L120.06 147.438H121.369L115.665 160.498H114.364L116.21 156.279L112.281 147.438ZM124.182 148.519V157H122.96V147.438H127.794V148.519H124.182ZM137.559 157H136.249L133.05 150.039L129.877 157H128.559L132.936 147.438H133.155L137.559 157ZM143.975 147.191C145.445 147.191 146.664 147.725 147.631 148.791C148.51 149.764 148.949 150.915 148.949 152.245C148.949 153.581 148.483 154.75 147.552 155.752C146.626 156.748 145.434 157.246 143.975 157.246C142.51 157.246 141.312 156.748 140.38 155.752C139.454 154.75 138.991 153.581 138.991 152.245C138.991 150.921 139.431 149.772 140.31 148.8C141.276 147.728 142.498 147.191 143.975 147.191ZM143.975 148.396C142.955 148.396 142.079 148.773 141.347 149.529C140.614 150.285 140.248 151.199 140.248 152.271C140.248 152.963 140.415 153.607 140.749 154.205C141.083 154.803 141.534 155.266 142.103 155.594C142.671 155.916 143.295 156.077 143.975 156.077C144.654 156.077 145.278 155.916 145.847 155.594C146.415 155.266 146.866 154.803 147.2 154.205C147.534 153.607 147.701 152.963 147.701 152.271C147.701 151.199 147.332 150.285 146.594 149.529C145.861 148.773 144.988 148.396 143.975 148.396ZM160.524 149.424L159.549 150.03C158.705 148.911 157.554 148.352 156.095 148.352C154.929 148.352 153.959 148.727 153.186 149.477C152.418 150.227 152.034 151.138 152.034 152.21C152.034 152.907 152.21 153.563 152.562 154.179C152.919 154.794 153.405 155.271 154.021 155.611C154.642 155.951 155.336 156.121 156.104 156.121C157.51 156.121 158.658 155.562 159.549 154.442L160.524 155.084C160.067 155.77 159.452 156.303 158.679 156.684C157.911 157.059 157.035 157.246 156.051 157.246C154.539 157.246 153.285 156.766 152.289 155.805C151.293 154.844 150.795 153.675 150.795 152.298C150.795 151.372 151.026 150.514 151.489 149.723C151.958 148.926 152.6 148.305 153.414 147.859C154.229 147.414 155.14 147.191 156.147 147.191C156.78 147.191 157.39 147.288 157.976 147.481C158.567 147.675 159.068 147.927 159.479 148.237C159.889 148.548 160.237 148.943 160.524 149.424ZM161.869 147.438H163.17L166.457 154.803L169.647 147.438H170.957L165.253 160.498H163.952L165.798 156.279L161.869 147.438ZM171.476 147.438H177.769V148.501H175.237V157H173.998V148.501H171.476V147.438ZM183.965 147.191C185.436 147.191 186.654 147.725 187.621 148.791C188.5 149.764 188.939 150.915 188.939 152.245C188.939 153.581 188.474 154.75 187.542 155.752C186.616 156.748 185.424 157.246 183.965 157.246C182.5 157.246 181.302 156.748 180.37 155.752C179.444 154.75 178.981 153.581 178.981 152.245C178.981 150.921 179.421 149.772 180.3 148.8C181.267 147.728 182.488 147.191 183.965 147.191ZM183.965 148.396C182.945 148.396 182.069 148.773 181.337 149.529C180.604 150.285 180.238 151.199 180.238 152.271C180.238 152.963 180.405 153.607 180.739 154.205C181.073 154.803 181.524 155.266 182.093 155.594C182.661 155.916 183.285 156.077 183.965 156.077C184.645 156.077 185.269 155.916 185.837 155.594C186.405 155.266 186.856 154.803 187.19 154.205C187.524 153.607 187.691 152.963 187.691 152.271C187.691 151.199 187.322 150.285 186.584 149.529C185.852 148.773 184.979 148.396 183.965 148.396ZM195.514 152.685H193.352C192.373 152.685 191.646 152.433 191.172 151.929C190.703 151.425 190.469 150.725 190.469 149.828V147.438H191.673V149.169C191.673 150.282 191.831 150.974 192.147 151.243C192.464 151.507 192.985 151.639 193.712 151.639H195.514V147.438H196.735V157H195.514V152.685ZM206.271 152.395H200.717V157H199.478V147.438H200.717V151.234H206.271V147.438H207.502V157H206.271V152.395ZM214.779 147.191C216.25 147.191 217.469 147.725 218.436 148.791C219.314 149.764 219.754 150.915 219.754 152.245C219.754 153.581 219.288 154.75 218.356 155.752C217.431 156.748 216.238 157.246 214.779 157.246C213.314 157.246 212.116 156.748 211.185 155.752C210.259 154.75 209.796 153.581 209.796 152.245C209.796 150.921 210.235 149.772 211.114 148.8C212.081 147.728 213.303 147.191 214.779 147.191ZM214.779 148.396C213.76 148.396 212.884 148.773 212.151 149.529C211.419 150.285 211.053 151.199 211.053 152.271C211.053 152.963 211.22 153.607 211.554 154.205C211.888 154.803 212.339 155.266 212.907 155.594C213.476 155.916 214.1 156.077 214.779 156.077C215.459 156.077 216.083 155.916 216.651 155.594C217.22 155.266 217.671 154.803 218.005 154.205C218.339 153.607 218.506 152.963 218.506 152.271C218.506 151.199 218.137 150.285 217.398 149.529C216.666 148.773 215.793 148.396 214.779 148.396ZM230.099 153.827L231.136 154.372C230.796 155.04 230.403 155.579 229.958 155.989C229.513 156.399 229.012 156.713 228.455 156.93C227.898 157.141 227.269 157.246 226.565 157.246C225.007 157.246 223.788 156.736 222.909 155.717C222.03 154.691 221.591 153.534 221.591 152.245C221.591 151.032 221.963 149.951 222.707 149.002C223.65 147.795 224.913 147.191 226.495 147.191C228.124 147.191 229.425 147.81 230.397 149.046C231.089 149.919 231.44 151.009 231.452 152.315H222.856C222.88 153.429 223.234 154.343 223.92 155.058C224.605 155.767 225.452 156.121 226.46 156.121C226.946 156.121 227.418 156.036 227.875 155.866C228.338 155.696 228.73 155.471 229.053 155.189C229.375 154.908 229.724 154.454 230.099 153.827ZM230.099 151.252C229.935 150.596 229.694 150.071 229.378 149.679C229.067 149.286 228.654 148.97 228.139 148.729C227.623 148.489 227.081 148.369 226.513 148.369C225.575 148.369 224.77 148.671 224.096 149.274C223.604 149.714 223.231 150.373 222.979 151.252H230.099ZM101.154 169.438H109.179V179H107.948V170.598H102.385V179H101.154V169.438ZM111.947 169.438H113.169V171.195C113.655 170.527 114.215 170.026 114.848 169.692C115.48 169.358 116.187 169.191 116.966 169.191C118.325 169.191 119.488 169.681 120.455 170.659C121.422 171.638 121.905 172.815 121.905 174.192C121.905 175.599 121.425 176.794 120.464 177.778C119.509 178.757 118.354 179.246 117.001 179.246C116.239 179.246 115.539 179.088 114.9 178.771C114.262 178.455 113.685 177.983 113.169 177.356V182.498H111.947V169.438ZM116.869 170.378C115.803 170.378 114.903 170.75 114.171 171.494C113.444 172.238 113.081 173.164 113.081 174.271C113.081 174.998 113.242 175.651 113.564 176.231C113.893 176.812 114.358 177.271 114.962 177.611C115.571 177.951 116.213 178.121 116.887 178.121C117.549 178.121 118.17 177.951 118.75 177.611C119.336 177.266 119.802 176.785 120.147 176.17C120.493 175.555 120.666 174.91 120.666 174.236C120.666 173.557 120.493 172.912 120.147 172.303C119.808 171.693 119.348 171.222 118.768 170.888C118.188 170.548 117.555 170.378 116.869 170.378ZM128.743 169.191C130.214 169.191 131.433 169.725 132.399 170.791C133.278 171.764 133.718 172.915 133.718 174.245C133.718 175.581 133.252 176.75 132.32 177.752C131.395 178.748 130.202 179.246 128.743 179.246C127.278 179.246 126.08 178.748 125.148 177.752C124.223 176.75 123.76 175.581 123.76 174.245C123.76 172.921 124.199 171.772 125.078 170.8C126.045 169.728 127.267 169.191 128.743 169.191ZM128.743 170.396C127.724 170.396 126.848 170.773 126.115 171.529C125.383 172.285 125.017 173.199 125.017 174.271C125.017 174.963 125.184 175.607 125.518 176.205C125.852 176.803 126.303 177.266 126.871 177.594C127.439 177.916 128.063 178.077 128.743 178.077C129.423 178.077 130.047 177.916 130.615 177.594C131.184 177.266 131.635 176.803 131.969 176.205C132.303 175.607 132.47 174.963 132.47 174.271C132.47 173.199 132.101 172.285 131.362 171.529C130.63 170.773 129.757 170.396 128.743 170.396ZM137.242 169.438V176.513L144.265 169.438H144.361V179H143.131V171.986L136.161 179H136.012V169.438H137.242ZM148.703 173.463H149.345C149.755 173.463 150.13 173.328 150.47 173.059C150.815 172.789 150.988 172.402 150.988 171.898C150.988 171.471 150.851 171.104 150.575 170.8C150.3 170.489 149.878 170.334 149.31 170.334C148.647 170.334 147.982 170.592 147.314 171.107L146.62 170.255C147.481 169.534 148.396 169.174 149.362 169.174C150.159 169.174 150.827 169.411 151.366 169.886C151.905 170.36 152.175 170.973 152.175 171.723C152.175 172.719 151.735 173.396 150.856 173.753C152.005 174.233 152.579 175.074 152.579 176.275C152.579 177.037 152.31 177.726 151.771 178.341C151.237 178.95 150.438 179.255 149.371 179.255C148.064 179.255 147.013 178.83 146.216 177.98L146.989 177.102C147.581 177.77 148.34 178.104 149.266 178.104C149.887 178.104 150.373 177.937 150.725 177.603C151.082 177.269 151.261 176.829 151.261 176.284C151.261 175.751 151.082 175.323 150.725 175.001C150.367 174.679 149.945 174.518 149.459 174.518H148.703V173.463ZM157.492 179H154.715V169.438H157.448C158.491 169.438 159.241 169.678 159.698 170.158C160.161 170.639 160.393 171.201 160.393 171.846C160.393 172.818 159.965 173.478 159.109 173.823C160.352 174.263 160.973 175.109 160.973 176.363C160.973 178.121 159.812 179 157.492 179ZM155.954 170.501V173.489H156.754C157.48 173.489 157.955 173.46 158.178 173.401C158.4 173.343 158.608 173.199 158.802 172.971C159.001 172.736 159.101 172.429 159.101 172.048C159.101 171.649 158.998 171.315 158.793 171.046C158.588 170.776 158.371 170.618 158.143 170.571C157.92 170.524 157.457 170.501 156.754 170.501H155.954ZM155.954 174.614V177.963H157.272C157.894 177.963 158.336 177.925 158.6 177.849C158.869 177.767 159.098 177.594 159.285 177.33C159.479 177.066 159.575 176.732 159.575 176.328C159.575 175.807 159.411 175.391 159.083 175.08C158.755 174.77 158.321 174.614 157.782 174.614H155.954ZM167.661 169.191C169.132 169.191 170.351 169.725 171.317 170.791C172.196 171.764 172.636 172.915 172.636 174.245C172.636 175.581 172.17 176.75 171.238 177.752C170.312 178.748 169.12 179.246 167.661 179.246C166.196 179.246 164.998 178.748 164.066 177.752C163.141 176.75 162.678 175.581 162.678 174.245C162.678 172.921 163.117 171.772 163.996 170.8C164.963 169.728 166.185 169.191 167.661 169.191ZM167.661 170.396C166.642 170.396 165.766 170.773 165.033 171.529C164.301 172.285 163.935 173.199 163.935 174.271C163.935 174.963 164.102 175.607 164.436 176.205C164.77 176.803 165.221 177.266 165.789 177.594C166.357 177.916 166.981 178.077 167.661 178.077C168.341 178.077 168.965 177.916 169.533 177.594C170.102 177.266 170.553 176.803 170.887 176.205C171.221 175.607 171.388 174.963 171.388 174.271C171.388 173.199 171.019 172.285 170.28 171.529C169.548 170.773 168.675 170.396 167.661 170.396ZM175.009 177.954L178.7 169.438H179.342L183.007 177.954H184.158V180.222H182.972V179H175.062V180.274H173.849V177.954H175.009ZM178.999 171.336L176.204 177.954H181.68L178.999 171.336ZM195.109 171.424L194.134 172.03C193.29 170.911 192.139 170.352 190.68 170.352C189.514 170.352 188.544 170.727 187.771 171.477C187.003 172.227 186.619 173.138 186.619 174.21C186.619 174.907 186.795 175.563 187.146 176.179C187.504 176.794 187.99 177.271 188.605 177.611C189.227 177.951 189.921 178.121 190.688 178.121C192.095 178.121 193.243 177.562 194.134 176.442L195.109 177.084C194.652 177.77 194.037 178.303 193.264 178.684C192.496 179.059 191.62 179.246 190.636 179.246C189.124 179.246 187.87 178.766 186.874 177.805C185.878 176.844 185.38 175.675 185.38 174.298C185.38 173.372 185.611 172.514 186.074 171.723C186.543 170.926 187.185 170.305 187.999 169.859C188.813 169.414 189.725 169.191 190.732 169.191C191.365 169.191 191.975 169.288 192.561 169.481C193.152 169.675 193.653 169.927 194.063 170.237C194.474 170.548 194.822 170.943 195.109 171.424ZM196.41 169.438H202.703V170.501H200.172V179H198.933V170.501H196.41V169.438ZM207.15 179H204.373V169.438H207.106C208.149 169.438 208.899 169.678 209.356 170.158C209.819 170.639 210.051 171.201 210.051 171.846C210.051 172.818 209.623 173.478 208.768 173.823C210.01 174.263 210.631 175.109 210.631 176.363C210.631 178.121 209.471 179 207.15 179ZM205.612 170.501V173.489H206.412C207.139 173.489 207.613 173.46 207.836 173.401C208.059 173.343 208.267 173.199 208.46 172.971C208.659 172.736 208.759 172.429 208.759 172.048C208.759 171.649 208.656 171.315 208.451 171.046C208.246 170.776 208.029 170.618 207.801 170.571C207.578 170.524 207.115 170.501 206.412 170.501H205.612ZM205.612 174.614V177.963H206.931C207.552 177.963 207.994 177.925 208.258 177.849C208.527 177.767 208.756 177.594 208.943 177.33C209.137 177.066 209.233 176.732 209.233 176.328C209.233 175.807 209.069 175.391 208.741 175.08C208.413 174.77 207.979 174.614 207.44 174.614H205.612ZM217.319 169.191C218.79 169.191 220.009 169.725 220.976 170.791C221.854 171.764 222.294 172.915 222.294 174.245C222.294 175.581 221.828 176.75 220.896 177.752C219.971 178.748 218.778 179.246 217.319 179.246C215.854 179.246 214.656 178.748 213.725 177.752C212.799 176.75 212.336 175.581 212.336 174.245C212.336 172.921 212.775 171.772 213.654 170.8C214.621 169.728 215.843 169.191 217.319 169.191ZM217.319 170.396C216.3 170.396 215.424 170.773 214.691 171.529C213.959 172.285 213.593 173.199 213.593 174.271C213.593 174.963 213.76 175.607 214.094 176.205C214.428 176.803 214.879 177.266 215.447 177.594C216.016 177.916 216.64 178.077 217.319 178.077C217.999 178.077 218.623 177.916 219.191 177.594C219.76 177.266 220.211 176.803 220.545 176.205C220.879 175.607 221.046 174.963 221.046 174.271C221.046 173.199 220.677 172.285 219.938 171.529C219.206 170.773 218.333 170.396 217.319 170.396Z" fill="white"/>
<path d="M308 203V97H328L308 203Z" fill="#0081B9"/>
<path d="M15 223V203L308 203L15 223Z" fill="#0081B9"/>
<rect x="108" width="112" height="112" rx="56" fill="white"/>
<rect width="80" height="80" transform="translate(124 16)" fill="white"/>
<path fill-rule="evenodd" clip-rule="evenodd" d="M183.431 44.5714C184.062 44.5714 184.574 45.0831 184.574 45.7143C184.574 46.3455 184.062 46.8571 183.431 46.8571C183.117 46.8571 182.867 47.0073 182.633 47.4945C182.386 48.0083 182.288 48.6827 182.288 49.1428V66.2857C182.288 66.9169 181.777 67.4286 181.145 67.4286H146.858C146.227 67.4286 145.715 66.9169 145.715 66.2857V49.1428C145.715 48.4601 145.845 47.4202 146.285 46.5054C146.736 45.5641 147.629 44.5714 149.143 44.5714H183.431Z" fill="#C1E5FA"/>
<path d="M184.574 45.7143C184.574 45.0831 184.062 44.5714 183.431 44.5714H181.143C179.629 44.5714 178.736 45.5641 178.285 46.5054C177.845 47.4202 177.715 48.4601 177.715 49.1428V66.2857C177.715 66.9169 178.227 67.4286 178.858 67.4286H181.145C181.777 67.4286 182.288 66.9169 182.288 66.2857V49.1428C182.288 48.6827 182.386 48.0083 182.633 47.4945C182.867 47.0073 183.117 46.8571 183.431 46.8571C184.062 46.8571 184.574 46.3455 184.574 45.7143Z" fill="#EE771C"/>
<path d="M145.715 66.2857C145.715 66.9169 146.227 67.4286 146.858 67.4286H151.429C150.798 67.4286 150.286 66.9169 150.286 66.2857V49.1428C150.286 48.4601 150.417 47.4202 150.856 46.5054C151.308 45.5641 152.2 44.5714 153.715 44.5714H149.143C147.629 44.5714 146.736 45.5641 146.285 46.5054C145.845 47.4202 145.715 48.4601 145.715 49.1428V66.2857Z" fill="#EE771C"/>
<path d="M185.713 45.7143C185.713 45.0831 186.225 44.5714 186.856 44.5714H189.142C189.773 44.5714 190.285 45.0831 190.285 45.7143C190.285 46.3455 189.773 46.8571 189.142 46.8571H186.856C186.225 46.8571 185.713 46.3455 185.713 45.7143Z" fill="#134B80"/>
<path fill-rule="evenodd" clip-rule="evenodd" d="M133.142 40C132.665 40 132.239 40.2955 132.072 40.7416L128.643 49.8844C128.511 50.2354 128.56 50.6286 128.774 50.9367C128.987 51.2448 129.338 51.4286 129.713 51.4286H141.142V70.3838L138.048 73.4776C137.602 73.9239 137.602 74.6475 138.048 75.0938C138.494 75.5402 139.218 75.5402 139.664 75.0938L142.758 72H187.526L186.048 73.4776C185.602 73.9239 185.602 74.6475 186.048 75.0938C186.494 75.5401 187.218 75.5401 187.664 75.0938L191.093 71.6653C191.202 71.5557 191.285 71.4294 191.341 71.2946C191.39 71.177 191.419 71.0495 191.426 70.916C191.427 70.9036 191.427 70.8913 191.427 70.8789C191.427 70.8716 191.427 70.8644 191.427 70.8571V51.4286H194.856C195.332 51.4286 195.759 51.1331 195.926 50.687L199.355 41.5441C199.486 41.1932 199.437 40.8 199.224 40.4919C199.01 40.1838 198.659 40 198.285 40H133.142ZM143.427 69.7143V51.4286C144.059 51.4286 144.57 50.9169 144.57 50.2857C144.57 49.6545 144.059 49.1429 143.427 49.1429H131.362L133.934 42.2857H196.635L194.064 49.1429H184.57C183.939 49.1429 183.427 49.6545 183.427 50.2857C183.427 50.9169 183.939 51.4286 184.57 51.4286H189.142V69.7143H143.427Z" fill="#134B80"/>
</svg>
