<svg width="328" height="179" viewBox="0 0 328 179" fill="none" xmlns="http://www.w3.org/2000/svg">
<path d="M0 82L15 85.6574L15 179L0 82Z" fill="#0081B9"/>
<path d="M0 82L5.28375 97L328 97L0 82Z" fill="#0081B9"/>
<rect width="293" height="62" transform="translate(15 97)" fill="#0081B9"/>
<path d="M53.3154 135V122.071H59.793V123.346H54.5898V127.477H55.1963C56.8076 127.477 57.9766 127.62 58.7031 127.907C59.4355 128.188 60.0098 128.637 60.4258 129.252C60.8477 129.861 61.0586 130.541 61.0586 131.291C61.0586 132.275 60.6895 133.14 59.9512 133.884C59.2129 134.628 58.1846 135 56.8662 135H53.3154ZM54.5898 128.777V133.734H56.1807C57.124 133.734 57.8154 133.644 58.2549 133.462C58.6943 133.274 59.043 132.99 59.3008 132.609C59.5645 132.223 59.6963 131.792 59.6963 131.317C59.6963 130.72 59.5117 130.213 59.1426 129.797C58.7734 129.381 58.3135 129.108 57.7627 128.979C57.2119 128.845 56.3945 128.777 55.3105 128.777H54.5898ZM71.4912 131.827L72.5283 132.372C72.1885 133.04 71.7959 133.579 71.3506 133.989C70.9053 134.399 70.4043 134.713 69.8477 134.93C69.291 135.141 68.6611 135.246 67.958 135.246C66.3994 135.246 65.1807 134.736 64.3018 133.717C63.4229 132.691 62.9834 131.534 62.9834 130.245C62.9834 129.032 63.3555 127.951 64.0996 127.002C65.043 125.795 66.3057 125.191 67.8877 125.191C69.5166 125.191 70.8174 125.81 71.79 127.046C72.4814 127.919 72.833 129.009 72.8447 130.315H64.249C64.2725 131.429 64.627 132.343 65.3125 133.058C65.998 133.767 66.8447 134.121 67.8525 134.121C68.3389 134.121 68.8105 134.036 69.2676 133.866C69.7305 133.696 70.123 133.471 70.4453 133.189C70.7676 132.908 71.1162 132.454 71.4912 131.827ZM71.4912 129.252C71.3271 128.596 71.0869 128.071 70.7705 127.679C70.46 127.286 70.0469 126.97 69.5312 126.729C69.0156 126.489 68.4736 126.369 67.9053 126.369C66.9678 126.369 66.1621 126.671 65.4883 127.274C64.9961 127.714 64.624 128.373 64.3721 129.252H71.4912ZM84.4287 127.424L83.4531 128.03C82.6094 126.911 81.458 126.352 79.999 126.352C78.833 126.352 77.8633 126.727 77.0898 127.477C76.3223 128.227 75.9385 129.138 75.9385 130.21C75.9385 130.907 76.1143 131.563 76.4658 132.179C76.8232 132.794 77.3096 133.271 77.9248 133.611C78.5459 133.951 79.2402 134.121 80.0078 134.121C81.4141 134.121 82.5625 133.562 83.4531 132.442L84.4287 133.084C83.9717 133.77 83.3564 134.303 82.583 134.684C81.8154 135.059 80.9395 135.246 79.9551 135.246C78.4434 135.246 77.1895 134.766 76.1934 133.805C75.1973 132.844 74.6992 131.675 74.6992 130.298C74.6992 129.372 74.9307 128.514 75.3936 127.723C75.8623 126.926 76.5039 126.305 77.3184 125.859C78.1328 125.414 79.0439 125.191 80.0518 125.191C80.6846 125.191 81.2939 125.288 81.8799 125.481C82.4717 125.675 82.9727 125.927 83.3828 126.237C83.793 126.548 84.1416 126.943 84.4287 127.424ZM86.8018 125.438H94.8262V135H93.5957V126.598H88.0322V135H86.8018V125.438ZM105.672 135H104.362L101.163 128.039L97.9902 135H96.6719L101.049 125.438H101.269L105.672 135ZM117.089 125.438V135H115.876V133.356C115.36 133.983 114.78 134.455 114.136 134.771C113.497 135.088 112.797 135.246 112.035 135.246C110.682 135.246 109.524 134.757 108.563 133.778C107.608 132.794 107.131 131.599 107.131 130.192C107.131 128.815 107.614 127.638 108.581 126.659C109.548 125.681 110.711 125.191 112.07 125.191C112.855 125.191 113.564 125.358 114.197 125.692C114.836 126.026 115.396 126.527 115.876 127.195V125.438H117.089ZM112.167 126.378C111.481 126.378 110.849 126.548 110.269 126.888C109.688 127.222 109.226 127.693 108.88 128.303C108.54 128.912 108.37 129.557 108.37 130.236C108.37 130.91 108.543 131.555 108.889 132.17C109.234 132.785 109.697 133.266 110.277 133.611C110.863 133.951 111.49 134.121 112.158 134.121C112.832 134.121 113.471 133.951 114.074 133.611C114.678 133.271 115.141 132.812 115.463 132.231C115.791 131.651 115.955 130.998 115.955 130.271C115.955 129.164 115.589 128.238 114.856 127.494C114.13 126.75 113.233 126.378 112.167 126.378ZM118.794 125.438H125.087V126.501H122.556V135H121.316V126.501H118.794V125.438ZM133.551 130.395H127.996V135H126.757V125.438H127.996V129.234H133.551V125.438H134.781V135H133.551V130.395ZM147.06 125.438V135H145.847V133.356C145.331 133.983 144.751 134.455 144.106 134.771C143.468 135.088 142.768 135.246 142.006 135.246C140.652 135.246 139.495 134.757 138.534 133.778C137.579 132.794 137.102 131.599 137.102 130.192C137.102 128.815 137.585 127.638 138.552 126.659C139.519 125.681 140.682 125.191 142.041 125.191C142.826 125.191 143.535 125.358 144.168 125.692C144.807 126.026 145.366 126.527 145.847 127.195V125.438H147.06ZM142.138 126.378C141.452 126.378 140.819 126.548 140.239 126.888C139.659 127.222 139.196 127.693 138.851 128.303C138.511 128.912 138.341 129.557 138.341 130.236C138.341 130.91 138.514 131.555 138.859 132.17C139.205 132.785 139.668 133.266 140.248 133.611C140.834 133.951 141.461 134.121 142.129 134.121C142.803 134.121 143.441 133.951 144.045 133.611C144.648 133.271 145.111 132.812 145.434 132.231C145.762 131.651 145.926 130.998 145.926 130.271C145.926 129.164 145.56 128.238 144.827 127.494C144.101 126.75 143.204 126.378 142.138 126.378ZM153.871 130.72H152.992L150.268 135H148.94L151.814 130.597C151.1 130.509 150.52 130.239 150.074 129.788C149.629 129.331 149.406 128.766 149.406 128.092C149.406 127.248 149.661 126.595 150.171 126.132C150.687 125.669 151.36 125.438 152.192 125.438H155.102V135H153.871V130.72ZM153.871 126.501H153.062C152.277 126.501 151.75 126.551 151.48 126.65C151.211 126.75 150.997 126.923 150.839 127.169C150.681 127.409 150.602 127.734 150.602 128.145C150.602 128.537 150.704 128.862 150.909 129.12C151.114 129.372 151.343 129.527 151.595 129.586C151.847 129.645 152.336 129.674 153.062 129.674H153.871V126.501ZM171.783 135H162.845V125.438H164.084V133.84H169.639V125.438H170.878V133.84H172.943V136.512H171.783V135ZM177.382 135H174.604V125.438H177.338C178.381 125.438 179.131 125.678 179.588 126.158C180.051 126.639 180.282 127.201 180.282 127.846C180.282 128.818 179.854 129.478 178.999 129.823C180.241 130.263 180.862 131.109 180.862 132.363C180.862 134.121 179.702 135 177.382 135ZM175.844 126.501V129.489H176.644C177.37 129.489 177.845 129.46 178.067 129.401C178.29 129.343 178.498 129.199 178.691 128.971C178.891 128.736 178.99 128.429 178.99 128.048C178.99 127.649 178.888 127.315 178.683 127.046C178.478 126.776 178.261 126.618 178.032 126.571C177.81 126.524 177.347 126.501 176.644 126.501H175.844ZM175.844 130.614V133.963H177.162C177.783 133.963 178.226 133.925 178.489 133.849C178.759 133.767 178.987 133.594 179.175 133.33C179.368 133.066 179.465 132.732 179.465 132.328C179.465 131.807 179.301 131.391 178.973 131.08C178.645 130.77 178.211 130.614 177.672 130.614H175.844ZM191.075 131.827L192.112 132.372C191.772 133.04 191.38 133.579 190.935 133.989C190.489 134.399 189.988 134.713 189.432 134.93C188.875 135.141 188.245 135.246 187.542 135.246C185.983 135.246 184.765 134.736 183.886 133.717C183.007 132.691 182.567 131.534 182.567 130.245C182.567 129.032 182.939 127.951 183.684 127.002C184.627 125.795 185.89 125.191 187.472 125.191C189.101 125.191 190.401 125.81 191.374 127.046C192.065 127.919 192.417 129.009 192.429 130.315H183.833C183.856 131.429 184.211 132.343 184.896 133.058C185.582 133.767 186.429 134.121 187.437 134.121C187.923 134.121 188.395 134.036 188.852 133.866C189.314 133.696 189.707 133.471 190.029 133.189C190.352 132.908 190.7 132.454 191.075 131.827ZM191.075 129.252C190.911 128.596 190.671 128.071 190.354 127.679C190.044 127.286 189.631 126.97 189.115 126.729C188.6 126.489 188.058 126.369 187.489 126.369C186.552 126.369 185.746 126.671 185.072 127.274C184.58 127.714 184.208 128.373 183.956 129.252H191.075ZM193.659 125.438H199.952V126.501H197.421V135H196.182V126.501H193.659V125.438ZM206.148 125.191C207.619 125.191 208.838 125.725 209.805 126.791C210.684 127.764 211.123 128.915 211.123 130.245C211.123 131.581 210.657 132.75 209.726 133.752C208.8 134.748 207.607 135.246 206.148 135.246C204.684 135.246 203.485 134.748 202.554 133.752C201.628 132.75 201.165 131.581 201.165 130.245C201.165 128.921 201.604 127.772 202.483 126.8C203.45 125.728 204.672 125.191 206.148 125.191ZM206.148 126.396C205.129 126.396 204.253 126.773 203.521 127.529C202.788 128.285 202.422 129.199 202.422 130.271C202.422 130.963 202.589 131.607 202.923 132.205C203.257 132.803 203.708 133.266 204.276 133.594C204.845 133.916 205.469 134.077 206.148 134.077C206.828 134.077 207.452 133.916 208.021 133.594C208.589 133.266 209.04 132.803 209.374 132.205C209.708 131.607 209.875 130.963 209.875 130.271C209.875 129.199 209.506 128.285 208.768 127.529C208.035 126.773 207.162 126.396 206.148 126.396ZM213.417 125.438H221.441V135H220.211V126.598H214.647V135H213.417V125.438ZM224.21 125.438H225.432V127.195C225.918 126.527 226.478 126.026 227.11 125.692C227.743 125.358 228.449 125.191 229.229 125.191C230.588 125.191 231.751 125.681 232.718 126.659C233.685 127.638 234.168 128.815 234.168 130.192C234.168 131.599 233.688 132.794 232.727 133.778C231.771 134.757 230.617 135.246 229.264 135.246C228.502 135.246 227.802 135.088 227.163 134.771C226.524 134.455 225.947 133.983 225.432 133.356V138.498H224.21V125.438ZM229.132 126.378C228.065 126.378 227.166 126.75 226.434 127.494C225.707 128.238 225.344 129.164 225.344 130.271C225.344 130.998 225.505 131.651 225.827 132.231C226.155 132.812 226.621 133.271 227.225 133.611C227.834 133.951 228.476 134.121 229.149 134.121C229.812 134.121 230.433 133.951 231.013 133.611C231.599 133.266 232.064 132.785 232.41 132.17C232.756 131.555 232.929 130.91 232.929 130.236C232.929 129.557 232.756 128.912 232.41 128.303C232.07 127.693 231.61 127.222 231.03 126.888C230.45 126.548 229.817 126.378 229.132 126.378ZM241.006 125.191C242.477 125.191 243.695 125.725 244.662 126.791C245.541 127.764 245.98 128.915 245.98 130.245C245.98 131.581 245.515 132.75 244.583 133.752C243.657 134.748 242.465 135.246 241.006 135.246C239.541 135.246 238.343 134.748 237.411 133.752C236.485 132.75 236.022 131.581 236.022 130.245C236.022 128.921 236.462 127.772 237.341 126.8C238.308 125.728 239.529 125.191 241.006 125.191ZM241.006 126.396C239.986 126.396 239.11 126.773 238.378 127.529C237.646 128.285 237.279 129.199 237.279 130.271C237.279 130.963 237.446 131.607 237.78 132.205C238.114 132.803 238.565 133.266 239.134 133.594C239.702 133.916 240.326 134.077 241.006 134.077C241.686 134.077 242.31 133.916 242.878 133.594C243.446 133.266 243.897 132.803 244.231 132.205C244.565 131.607 244.732 130.963 244.732 130.271C244.732 129.199 244.363 128.285 243.625 127.529C242.893 126.773 242.02 126.396 241.006 126.396ZM257.424 121.544V122.722C256.838 122.821 255.833 122.892 254.409 122.933C253.378 122.968 252.581 123.038 252.019 123.144C251.462 123.243 250.976 123.439 250.56 123.732C250.144 124.02 249.792 124.459 249.505 125.051C249.224 125.637 249.048 126.293 248.978 127.02L248.854 128.364C249.188 127.269 249.736 126.466 250.498 125.956C251.266 125.446 252.115 125.191 253.047 125.191C254.465 125.191 255.648 125.689 256.598 126.686C257.553 127.682 258.03 128.868 258.03 130.245C258.03 131.61 257.556 132.785 256.606 133.77C255.657 134.754 254.471 135.246 253.047 135.246C251.588 135.246 250.352 134.701 249.338 133.611C248.324 132.521 247.817 130.805 247.817 128.461C247.817 126.826 248.002 125.59 248.371 124.752C248.746 123.908 249.174 123.302 249.654 122.933C250.135 122.563 250.756 122.273 251.518 122.062C252.279 121.852 253.706 121.72 255.798 121.667C256.442 121.649 256.984 121.608 257.424 121.544ZM256.782 130.271C256.782 129.211 256.413 128.3 255.675 127.538C254.937 126.776 254.061 126.396 253.047 126.396C252.039 126.396 251.166 126.776 250.428 127.538C249.689 128.3 249.32 129.211 249.32 130.271C249.32 131.326 249.675 132.226 250.384 132.97C251.099 133.708 251.986 134.077 253.047 134.077C254.113 134.077 255.001 133.708 255.71 132.97C256.425 132.226 256.782 131.326 256.782 130.271ZM269.843 125.438V135H268.63V133.356C268.114 133.983 267.534 134.455 266.89 134.771C266.251 135.088 265.551 135.246 264.789 135.246C263.436 135.246 262.278 134.757 261.317 133.778C260.362 132.794 259.885 131.599 259.885 130.192C259.885 128.815 260.368 127.638 261.335 126.659C262.302 125.681 263.465 125.191 264.824 125.191C265.609 125.191 266.318 125.358 266.951 125.692C267.59 126.026 268.149 126.527 268.63 127.195V125.438H269.843ZM264.921 126.378C264.235 126.378 263.603 126.548 263.022 126.888C262.442 127.222 261.979 127.693 261.634 128.303C261.294 128.912 261.124 129.557 261.124 130.236C261.124 130.91 261.297 131.555 261.643 132.17C261.988 132.785 262.451 133.266 263.031 133.611C263.617 133.951 264.244 134.121 264.912 134.121C265.586 134.121 266.225 133.951 266.828 133.611C267.432 133.271 267.895 132.812 268.217 132.231C268.545 131.651 268.709 130.998 268.709 130.271C268.709 129.164 268.343 128.238 267.61 127.494C266.884 126.75 265.987 126.378 264.921 126.378Z" fill="white"/>
<path d="M308 159V97H328L308 159Z" fill="#0081B9"/>
<path d="M15 179V159L308 159L15 179Z" fill="#0081B9"/>
<rect x="108" width="112" height="112" rx="56" fill="white"/>
<rect width="70" height="68" transform="translate(129 22)" fill="white"/>
<rect x="150.73" y="73.9089" width="14" height="16" transform="rotate(-30 150.73 73.9089)" fill="white"/>
<path fill-rule="evenodd" clip-rule="evenodd" d="M131.732 41C130.775 41.5523 130.448 42.7755 131 43.732L157 88.7654C157.552 89.722 158.775 90.0497 159.732 89.4974L173.588 81.4974C174.545 80.9451 174.873 79.722 174.321 78.7654L148.321 33.7321C147.768 32.7755 146.545 32.4477 145.588 33L131.732 41ZM132.732 42.7321L146.588 34.7321L154.588 48.5885L140.732 56.5885L132.732 42.7321ZM141.732 58.3205L155.588 50.3205L163.588 64.1769L149.732 72.1769L141.732 58.3205ZM150.732 73.909L164.588 65.909L172.588 79.7654L158.732 87.7654L150.732 73.909Z" fill="#134B80"/>
<path d="M152.392 52.1663L141.731 58.3213L149.731 72.1777L156.679 68.1663L152.392 52.1663Z" fill="#C1E5FA"/>
<path d="M150.704 45.8644L144.855 35.7332L132.731 42.7332L140.731 56.5896L151.857 50.1658L150.704 45.8644Z" fill="#EE771C"/>
<rect x="160.766" y="67.3638" width="14" height="16" transform="rotate(-15 160.766 67.3638)" fill="white"/>
<path fill-rule="evenodd" clip-rule="evenodd" d="M150.932 30.6586C149.865 30.9445 149.232 32.0412 149.518 33.1081L162.976 83.3363C163.262 84.4032 164.359 85.0364 165.426 84.7505L180.881 80.6094C181.947 80.3235 182.581 79.2268 182.295 78.1599L168.836 27.9317C168.55 26.8648 167.454 26.2316 166.387 26.5175L150.932 30.6586ZM151.449 32.5905L166.904 28.4494L171.045 43.9042L155.591 48.0453L151.449 32.5905ZM156.108 49.9771L171.563 45.836L175.704 61.2909L160.249 65.432L156.108 49.9771ZM160.767 67.3638L176.222 63.2227L180.363 78.6775L164.908 82.8186L160.767 67.3638Z" fill="#134B80"/>
<path d="M167.996 46.7915L156.105 49.9776L160.247 65.4324L167.996 63.3559V46.7915Z" fill="#C1E5FA"/>
<path d="M167.996 40.2674L164.968 28.9674L151.445 32.5909L155.586 48.0457L167.996 44.7205L167.996 40.2674Z" fill="#EE771C"/>
<rect x="172" y="28" width="14" height="16" fill="#EE771C"/>
<rect x="172" y="46" width="14" height="16" fill="#C1E5FA"/>
<rect x="172" y="64" width="14" height="16" fill="white"/>
<path fill-rule="evenodd" clip-rule="evenodd" d="M172 26C170.895 26 170 26.8954 170 28V80C170 81.1046 170.895 82 172 82H188C189.105 82 190 81.1046 190 80V28C190 26.8954 189.105 26 188 26H172ZM172 28H188V44H172V28ZM172 46H188V62H172V46ZM172 64H188V80H172V64Z" fill="#134B80"/>
</svg>
