<svg width="328" height="223" viewBox="0 0 328 223" fill="none" xmlns="http://www.w3.org/2000/svg">
<path d="M0 82L15 87.3164L15 223L0 82Z" fill="#0081B9"/>
<path d="M0 82L5.28375 97L328 97L0 82Z" fill="#0081B9"/>
<rect width="293" height="106" transform="translate(15 97)" fill="#0081B9"/>
<path d="M59.8457 135V122.071H66.3232V123.346H61.1201V127.477H61.7266C63.3379 127.477 64.5068 127.62 65.2334 127.907C65.9658 128.188 66.54 128.637 66.9561 129.252C67.3779 129.861 67.5889 130.541 67.5889 131.291C67.5889 132.275 67.2197 133.14 66.4814 133.884C65.7432 134.628 64.7148 135 63.3965 135H59.8457ZM61.1201 128.777V133.734H62.7109C63.6543 133.734 64.3457 133.644 64.7852 133.462C65.2246 133.274 65.5732 132.99 65.8311 132.609C66.0947 132.223 66.2266 131.792 66.2266 131.317C66.2266 130.72 66.042 130.213 65.6729 129.797C65.3037 129.381 64.8438 129.108 64.293 128.979C63.7422 128.845 62.9248 128.777 61.8408 128.777H61.1201ZM78.0215 131.827L79.0586 132.372C78.7188 133.04 78.3262 133.579 77.8809 133.989C77.4355 134.399 76.9346 134.713 76.3779 134.93C75.8213 135.141 75.1914 135.246 74.4883 135.246C72.9297 135.246 71.7109 134.736 70.832 133.717C69.9531 132.691 69.5137 131.534 69.5137 130.245C69.5137 129.032 69.8857 127.951 70.6299 127.002C71.5732 125.795 72.8359 125.191 74.418 125.191C76.0469 125.191 77.3477 125.81 78.3203 127.046C79.0117 127.919 79.3633 129.009 79.375 130.315H70.7793C70.8027 131.429 71.1572 132.343 71.8428 133.058C72.5283 133.767 73.375 134.121 74.3828 134.121C74.8691 134.121 75.3408 134.036 75.7979 133.866C76.2607 133.696 76.6533 133.471 76.9756 133.189C77.2979 132.908 77.6465 132.454 78.0215 131.827ZM78.0215 129.252C77.8574 128.596 77.6172 128.071 77.3008 127.679C76.9902 127.286 76.5771 126.97 76.0615 126.729C75.5459 126.489 75.0039 126.369 74.4355 126.369C73.498 126.369 72.6924 126.671 72.0186 127.274C71.5264 127.714 71.1543 128.373 70.9023 129.252H78.0215ZM90.959 127.424L89.9834 128.03C89.1396 126.911 87.9883 126.352 86.5293 126.352C85.3633 126.352 84.3936 126.727 83.6201 127.477C82.8525 128.227 82.4688 129.138 82.4688 130.21C82.4688 130.907 82.6445 131.563 82.9961 132.179C83.3535 132.794 83.8398 133.271 84.4551 133.611C85.0762 133.951 85.7705 134.121 86.5381 134.121C87.9443 134.121 89.0928 133.562 89.9834 132.442L90.959 133.084C90.502 133.77 89.8867 134.303 89.1133 134.684C88.3457 135.059 87.4697 135.246 86.4854 135.246C84.9736 135.246 83.7197 134.766 82.7236 133.805C81.7275 132.844 81.2295 131.675 81.2295 130.298C81.2295 129.372 81.4609 128.514 81.9238 127.723C82.3926 126.926 83.0342 126.305 83.8486 125.859C84.6631 125.414 85.5742 125.191 86.582 125.191C87.2148 125.191 87.8242 125.288 88.4102 125.481C89.002 125.675 89.5029 125.927 89.9131 126.237C90.3232 126.548 90.6719 126.943 90.959 127.424ZM93.332 125.438H101.356V135H100.126V126.598H94.5625V135H93.332V125.438ZM112.202 135H110.893L107.693 128.039L104.521 135H103.202L107.579 125.438H107.799L112.202 135ZM123.619 125.438V135H122.406V133.356C121.891 133.983 121.311 134.455 120.666 134.771C120.027 135.088 119.327 135.246 118.565 135.246C117.212 135.246 116.055 134.757 115.094 133.778C114.139 132.794 113.661 131.599 113.661 130.192C113.661 128.815 114.145 127.638 115.111 126.659C116.078 125.681 117.241 125.191 118.601 125.191C119.386 125.191 120.095 125.358 120.728 125.692C121.366 126.026 121.926 126.527 122.406 127.195V125.438H123.619ZM118.697 126.378C118.012 126.378 117.379 126.548 116.799 126.888C116.219 127.222 115.756 127.693 115.41 128.303C115.07 128.912 114.9 129.557 114.9 130.236C114.9 130.91 115.073 131.555 115.419 132.17C115.765 132.785 116.228 133.266 116.808 133.611C117.394 133.951 118.021 134.121 118.688 134.121C119.362 134.121 120.001 133.951 120.604 133.611C121.208 133.271 121.671 132.812 121.993 132.231C122.321 131.651 122.485 130.998 122.485 130.271C122.485 129.164 122.119 128.238 121.387 127.494C120.66 126.75 119.764 126.378 118.697 126.378ZM125.324 125.438H131.617V126.501H129.086V135H127.847V126.501H125.324V125.438ZM140.081 130.395H134.526V135H133.287V125.438H134.526V129.234H140.081V125.438H141.312V135H140.081V130.395ZM153.59 125.438V135H152.377V133.356C151.861 133.983 151.281 134.455 150.637 134.771C149.998 135.088 149.298 135.246 148.536 135.246C147.183 135.246 146.025 134.757 145.064 133.778C144.109 132.794 143.632 131.599 143.632 130.192C143.632 128.815 144.115 127.638 145.082 126.659C146.049 125.681 147.212 125.191 148.571 125.191C149.356 125.191 150.065 125.358 150.698 125.692C151.337 126.026 151.896 126.527 152.377 127.195V125.438H153.59ZM148.668 126.378C147.982 126.378 147.35 126.548 146.77 126.888C146.189 127.222 145.727 127.693 145.381 128.303C145.041 128.912 144.871 129.557 144.871 130.236C144.871 130.91 145.044 131.555 145.39 132.17C145.735 132.785 146.198 133.266 146.778 133.611C147.364 133.951 147.991 134.121 148.659 134.121C149.333 134.121 149.972 133.951 150.575 133.611C151.179 133.271 151.642 132.812 151.964 132.231C152.292 131.651 152.456 130.998 152.456 130.271C152.456 129.164 152.09 128.238 151.357 127.494C150.631 126.75 149.734 126.378 148.668 126.378ZM160.401 130.72H159.522L156.798 135H155.471L158.345 130.597C157.63 130.509 157.05 130.239 156.604 129.788C156.159 129.331 155.937 128.766 155.937 128.092C155.937 127.248 156.191 126.595 156.701 126.132C157.217 125.669 157.891 125.438 158.723 125.438H161.632V135H160.401V130.72ZM160.401 126.501H159.593C158.808 126.501 158.28 126.551 158.011 126.65C157.741 126.75 157.527 126.923 157.369 127.169C157.211 127.409 157.132 127.734 157.132 128.145C157.132 128.537 157.234 128.862 157.439 129.12C157.645 129.372 157.873 129.527 158.125 129.586C158.377 129.645 158.866 129.674 159.593 129.674H160.401V126.501ZM169.454 133.954L173.146 125.438H173.787L177.452 133.954H178.604V136.222H177.417V135H169.507V136.274H168.294V133.954H169.454ZM173.444 127.336L170.649 133.954H176.125L173.444 127.336ZM184.8 125.191C186.271 125.191 187.489 125.725 188.456 126.791C189.335 127.764 189.774 128.915 189.774 130.245C189.774 131.581 189.309 132.75 188.377 133.752C187.451 134.748 186.259 135.246 184.8 135.246C183.335 135.246 182.137 134.748 181.205 133.752C180.279 132.75 179.816 131.581 179.816 130.245C179.816 128.921 180.256 127.772 181.135 126.8C182.102 125.728 183.323 125.191 184.8 125.191ZM184.8 126.396C183.78 126.396 182.904 126.773 182.172 127.529C181.439 128.285 181.073 129.199 181.073 130.271C181.073 130.963 181.24 131.607 181.574 132.205C181.908 132.803 182.359 133.266 182.928 133.594C183.496 133.916 184.12 134.077 184.8 134.077C185.479 134.077 186.104 133.916 186.672 133.594C187.24 133.266 187.691 132.803 188.025 132.205C188.359 131.607 188.526 130.963 188.526 130.271C188.526 129.199 188.157 128.285 187.419 127.529C186.687 126.773 185.813 126.396 184.8 126.396ZM201.35 127.424L200.374 128.03C199.53 126.911 198.379 126.352 196.92 126.352C195.754 126.352 194.784 126.727 194.011 127.477C193.243 128.227 192.859 129.138 192.859 130.21C192.859 130.907 193.035 131.563 193.387 132.179C193.744 132.794 194.23 133.271 194.846 133.611C195.467 133.951 196.161 134.121 196.929 134.121C198.335 134.121 199.483 133.562 200.374 132.442L201.35 133.084C200.893 133.77 200.277 134.303 199.504 134.684C198.736 135.059 197.86 135.246 196.876 135.246C195.364 135.246 194.11 134.766 193.114 133.805C192.118 132.844 191.62 131.675 191.62 130.298C191.62 129.372 191.852 128.514 192.314 127.723C192.783 126.926 193.425 126.305 194.239 125.859C195.054 125.414 195.965 125.191 196.973 125.191C197.605 125.191 198.215 125.288 198.801 125.481C199.393 125.675 199.894 125.927 200.304 126.237C200.714 126.548 201.062 126.943 201.35 127.424ZM202.65 125.438H208.943V126.501H206.412V135H205.173V126.501H202.65V125.438ZM220.141 125.438V135H218.928V133.356C218.412 133.983 217.832 134.455 217.188 134.771C216.549 135.088 215.849 135.246 215.087 135.246C213.733 135.246 212.576 134.757 211.615 133.778C210.66 132.794 210.183 131.599 210.183 130.192C210.183 128.815 210.666 127.638 211.633 126.659C212.6 125.681 213.763 125.191 215.122 125.191C215.907 125.191 216.616 125.358 217.249 125.692C217.888 126.026 218.447 126.527 218.928 127.195V125.438H220.141ZM215.219 126.378C214.533 126.378 213.9 126.548 213.32 126.888C212.74 127.222 212.277 127.693 211.932 128.303C211.592 128.912 211.422 129.557 211.422 130.236C211.422 130.91 211.595 131.555 211.94 132.17C212.286 132.785 212.749 133.266 213.329 133.611C213.915 133.951 214.542 134.121 215.21 134.121C215.884 134.121 216.522 133.951 217.126 133.611C217.729 133.271 218.192 132.812 218.515 132.231C218.843 131.651 219.007 130.998 219.007 130.271C219.007 129.164 218.641 128.238 217.908 127.494C217.182 126.75 216.285 126.378 215.219 126.378ZM225.695 135H222.918V125.438H225.651C226.694 125.438 227.444 125.678 227.901 126.158C228.364 126.639 228.596 127.201 228.596 127.846C228.596 128.818 228.168 129.478 227.312 129.823C228.555 130.263 229.176 131.109 229.176 132.363C229.176 134.121 228.016 135 225.695 135ZM224.157 126.501V129.489H224.957C225.684 129.489 226.158 129.46 226.381 129.401C226.604 129.343 226.812 129.199 227.005 128.971C227.204 128.736 227.304 128.429 227.304 128.048C227.304 127.649 227.201 127.315 226.996 127.046C226.791 126.776 226.574 126.618 226.346 126.571C226.123 126.524 225.66 126.501 224.957 126.501H224.157ZM224.157 130.614V133.963H225.476C226.097 133.963 226.539 133.925 226.803 133.849C227.072 133.767 227.301 133.594 227.488 133.33C227.682 133.066 227.778 132.732 227.778 132.328C227.778 131.807 227.614 131.391 227.286 131.08C226.958 130.77 226.524 130.614 225.985 130.614H224.157ZM231.338 125.438H232.577V129.463L236.998 125.438H238.712L233.869 129.814L239.099 135H237.358L232.964 130.579L232.577 130.922V135H231.338V125.438ZM249.9 125.438V135H248.688V133.356C248.172 133.983 247.592 134.455 246.947 134.771C246.309 135.088 245.608 135.246 244.847 135.246C243.493 135.246 242.336 134.757 241.375 133.778C240.42 132.794 239.942 131.599 239.942 130.192C239.942 128.815 240.426 127.638 241.393 126.659C242.359 125.681 243.522 125.191 244.882 125.191C245.667 125.191 246.376 125.358 247.009 125.692C247.647 126.026 248.207 126.527 248.688 127.195V125.438H249.9ZM244.979 126.378C244.293 126.378 243.66 126.548 243.08 126.888C242.5 127.222 242.037 127.693 241.691 128.303C241.352 128.912 241.182 129.557 241.182 130.236C241.182 130.91 241.354 131.555 241.7 132.17C242.046 132.785 242.509 133.266 243.089 133.611C243.675 133.951 244.302 134.121 244.97 134.121C245.644 134.121 246.282 133.951 246.886 133.611C247.489 133.271 247.952 132.812 248.274 132.231C248.603 131.651 248.767 130.998 248.767 130.271C248.767 129.164 248.4 128.238 247.668 127.494C246.941 126.75 246.045 126.378 244.979 126.378ZM260.447 135H257.67V125.438H260.403C261.446 125.438 262.196 125.678 262.653 126.158C263.116 126.639 263.348 127.201 263.348 127.846C263.348 128.818 262.92 129.478 262.064 129.823C263.307 130.263 263.928 131.109 263.928 132.363C263.928 134.121 262.768 135 260.447 135ZM258.909 126.501V129.489H259.709C260.436 129.489 260.91 129.46 261.133 129.401C261.355 129.343 261.563 129.199 261.757 128.971C261.956 128.736 262.056 128.429 262.056 128.048C262.056 127.649 261.953 127.315 261.748 127.046C261.543 126.776 261.326 126.618 261.098 126.571C260.875 126.524 260.412 126.501 259.709 126.501H258.909ZM258.909 130.614V133.963H260.228C260.849 133.963 261.291 133.925 261.555 133.849C261.824 133.767 262.053 133.594 262.24 133.33C262.434 133.066 262.53 132.732 262.53 132.328C262.53 131.807 262.366 131.391 262.038 131.08C261.71 130.77 261.276 130.614 260.737 130.614H258.909ZM75.8594 144.071H77.1777V148.923L82.3369 144.071H84.0859L77.8721 149.872L84.5693 157H82.8555L77.1777 150.971V157H75.8594V144.071ZM95.8193 147.438V157H94.6064V155.356C94.0908 155.983 93.5107 156.455 92.8662 156.771C92.2275 157.088 91.5273 157.246 90.7656 157.246C89.4121 157.246 88.2549 156.757 87.2939 155.778C86.3389 154.794 85.8613 153.599 85.8613 152.192C85.8613 150.815 86.3447 149.638 87.3115 148.659C88.2783 147.681 89.4414 147.191 90.8008 147.191C91.5859 147.191 92.2949 147.358 92.9277 147.692C93.5664 148.026 94.126 148.527 94.6064 149.195V147.438H95.8193ZM90.8975 148.378C90.2119 148.378 89.5791 148.548 88.999 148.888C88.4189 149.222 87.9561 149.693 87.6104 150.303C87.2705 150.912 87.1006 151.557 87.1006 152.236C87.1006 152.91 87.2734 153.555 87.6191 154.17C87.9648 154.785 88.4277 155.266 89.0078 155.611C89.5938 155.951 90.2207 156.121 90.8887 156.121C91.5625 156.121 92.2012 155.951 92.8047 155.611C93.4082 155.271 93.8711 154.812 94.1934 154.231C94.5215 153.651 94.6855 152.998 94.6855 152.271C94.6855 151.164 94.3193 150.238 93.5869 149.494C92.8604 148.75 91.9639 148.378 90.8975 148.378ZM100.196 151.463H100.838C101.248 151.463 101.623 151.328 101.963 151.059C102.309 150.789 102.481 150.402 102.481 149.898C102.481 149.471 102.344 149.104 102.068 148.8C101.793 148.489 101.371 148.334 100.803 148.334C100.141 148.334 99.4756 148.592 98.8076 149.107L98.1133 148.255C98.9746 147.534 99.8887 147.174 100.855 147.174C101.652 147.174 102.32 147.411 102.859 147.886C103.398 148.36 103.668 148.973 103.668 149.723C103.668 150.719 103.229 151.396 102.35 151.753C103.498 152.233 104.072 153.074 104.072 154.275C104.072 155.037 103.803 155.726 103.264 156.341C102.73 156.95 101.931 157.255 100.864 157.255C99.5576 157.255 98.5059 156.83 97.709 155.98L98.4824 155.102C99.0742 155.77 99.833 156.104 100.759 156.104C101.38 156.104 101.866 155.937 102.218 155.603C102.575 155.269 102.754 154.829 102.754 154.284C102.754 153.751 102.575 153.323 102.218 153.001C101.86 152.679 101.438 152.518 100.952 152.518H100.196V151.463ZM115.735 147.438V157H114.522V155.356C114.007 155.983 113.427 156.455 112.782 156.771C112.144 157.088 111.443 157.246 110.682 157.246C109.328 157.246 108.171 156.757 107.21 155.778C106.255 154.794 105.777 153.599 105.777 152.192C105.777 150.815 106.261 149.638 107.228 148.659C108.194 147.681 109.357 147.191 110.717 147.191C111.502 147.191 112.211 147.358 112.844 147.692C113.482 148.026 114.042 148.527 114.522 149.195V147.438H115.735ZM110.813 148.378C110.128 148.378 109.495 148.548 108.915 148.888C108.335 149.222 107.872 149.693 107.526 150.303C107.187 150.912 107.017 151.557 107.017 152.236C107.017 152.91 107.189 153.555 107.535 154.17C107.881 154.785 108.344 155.266 108.924 155.611C109.51 155.951 110.137 156.121 110.805 156.121C111.479 156.121 112.117 155.951 112.721 155.611C113.324 155.271 113.787 154.812 114.109 154.231C114.438 153.651 114.602 152.998 114.602 152.271C114.602 151.164 114.235 150.238 113.503 149.494C112.776 148.75 111.88 148.378 110.813 148.378ZM125.307 152.395H119.752V157H118.513V147.438H119.752V151.234H125.307V147.438H126.537V157H125.307V152.395ZM130.519 147.438V154.513L137.541 147.438H137.638V157H136.407V149.986L129.438 157H129.288V147.438H130.519ZM145.372 147.438H153.396V157H152.166V148.598H146.603V157H145.372V147.438ZM156.165 147.438H157.387V149.195C157.873 148.527 158.433 148.026 159.065 147.692C159.698 147.358 160.404 147.191 161.184 147.191C162.543 147.191 163.706 147.681 164.673 148.659C165.64 149.638 166.123 150.815 166.123 152.192C166.123 153.599 165.643 154.794 164.682 155.778C163.727 156.757 162.572 157.246 161.219 157.246C160.457 157.246 159.757 157.088 159.118 156.771C158.479 156.455 157.902 155.983 157.387 155.356V160.498H156.165V147.438ZM161.087 148.378C160.021 148.378 159.121 148.75 158.389 149.494C157.662 150.238 157.299 151.164 157.299 152.271C157.299 152.998 157.46 153.651 157.782 154.231C158.11 154.812 158.576 155.271 159.18 155.611C159.789 155.951 160.431 156.121 161.104 156.121C161.767 156.121 162.388 155.951 162.968 155.611C163.554 155.266 164.02 154.785 164.365 154.17C164.711 153.555 164.884 152.91 164.884 152.236C164.884 151.557 164.711 150.912 164.365 150.303C164.025 149.693 163.565 149.222 162.985 148.888C162.405 148.548 161.772 148.378 161.087 148.378ZM169.665 147.438V154.513L176.688 147.438H176.784V157H175.554V149.986L168.584 157H168.435V147.438H169.665ZM186.118 151.463H186.76C187.17 151.463 187.545 151.328 187.885 151.059C188.23 150.789 188.403 150.402 188.403 149.898C188.403 149.471 188.266 149.104 187.99 148.8C187.715 148.489 187.293 148.334 186.725 148.334C186.062 148.334 185.397 148.592 184.729 149.107L184.035 148.255C184.896 147.534 185.811 147.174 186.777 147.174C187.574 147.174 188.242 147.411 188.781 147.886C189.32 148.36 189.59 148.973 189.59 149.723C189.59 150.719 189.15 151.396 188.271 151.753C189.42 152.233 189.994 153.074 189.994 154.275C189.994 155.037 189.725 155.726 189.186 156.341C188.652 156.95 187.853 157.255 186.786 157.255C185.479 157.255 184.428 156.83 183.631 155.98L184.404 155.102C184.996 155.77 185.755 156.104 186.681 156.104C187.302 156.104 187.788 155.937 188.14 155.603C188.497 155.269 188.676 154.829 188.676 154.284C188.676 153.751 188.497 153.323 188.14 153.001C187.782 152.679 187.36 152.518 186.874 152.518H186.118V151.463ZM201.657 147.438V157H200.444V155.356C199.929 155.983 199.349 156.455 198.704 156.771C198.065 157.088 197.365 157.246 196.604 157.246C195.25 157.246 194.093 156.757 193.132 155.778C192.177 154.794 191.699 153.599 191.699 152.192C191.699 150.815 192.183 149.638 193.149 148.659C194.116 147.681 195.279 147.191 196.639 147.191C197.424 147.191 198.133 147.358 198.766 147.692C199.404 148.026 199.964 148.527 200.444 149.195V147.438H201.657ZM196.735 148.378C196.05 148.378 195.417 148.548 194.837 148.888C194.257 149.222 193.794 149.693 193.448 150.303C193.108 150.912 192.938 151.557 192.938 152.236C192.938 152.91 193.111 153.555 193.457 154.17C193.803 154.785 194.266 155.266 194.846 155.611C195.432 155.951 196.059 156.121 196.727 156.121C197.4 156.121 198.039 155.951 198.643 155.611C199.246 155.271 199.709 154.812 200.031 154.231C200.359 153.651 200.523 152.998 200.523 152.271C200.523 151.164 200.157 150.238 199.425 149.494C198.698 148.75 197.802 148.378 196.735 148.378ZM204.435 147.438H205.674V151.463L210.095 147.438H211.809L206.966 151.814L212.195 157H210.455L206.061 152.579L205.674 152.922V157H204.435V147.438ZM222.997 147.438V157H221.784V155.356C221.269 155.983 220.688 156.455 220.044 156.771C219.405 157.088 218.705 157.246 217.943 157.246C216.59 157.246 215.433 156.757 214.472 155.778C213.517 154.794 213.039 153.599 213.039 152.192C213.039 150.815 213.522 149.638 214.489 148.659C215.456 147.681 216.619 147.191 217.979 147.191C218.764 147.191 219.473 147.358 220.105 147.692C220.744 148.026 221.304 148.527 221.784 149.195V147.438H222.997ZM218.075 148.378C217.39 148.378 216.757 148.548 216.177 148.888C215.597 149.222 215.134 149.693 214.788 150.303C214.448 150.912 214.278 151.557 214.278 152.236C214.278 152.91 214.451 153.555 214.797 154.17C215.143 154.785 215.605 155.266 216.186 155.611C216.771 155.951 217.398 156.121 218.066 156.121C218.74 156.121 219.379 155.951 219.982 155.611C220.586 155.271 221.049 154.812 221.371 154.231C221.699 153.651 221.863 152.998 221.863 152.271C221.863 151.164 221.497 150.238 220.765 149.494C220.038 148.75 219.142 148.378 218.075 148.378ZM227.374 151.463H228.016C228.426 151.463 228.801 151.328 229.141 151.059C229.486 150.789 229.659 150.402 229.659 149.898C229.659 149.471 229.521 149.104 229.246 148.8C228.971 148.489 228.549 148.334 227.98 148.334C227.318 148.334 226.653 148.592 225.985 149.107L225.291 148.255C226.152 147.534 227.066 147.174 228.033 147.174C228.83 147.174 229.498 147.411 230.037 147.886C230.576 148.36 230.846 148.973 230.846 149.723C230.846 150.719 230.406 151.396 229.527 151.753C230.676 152.233 231.25 153.074 231.25 154.275C231.25 155.037 230.98 155.726 230.441 156.341C229.908 156.95 229.108 157.255 228.042 157.255C226.735 157.255 225.684 156.83 224.887 155.98L225.66 155.102C226.252 155.77 227.011 156.104 227.937 156.104C228.558 156.104 229.044 155.937 229.396 155.603C229.753 155.269 229.932 154.829 229.932 154.284C229.932 153.751 229.753 153.323 229.396 153.001C229.038 152.679 228.616 152.518 228.13 152.518H227.374V151.463ZM241.437 153.827L242.474 154.372C242.134 155.04 241.741 155.579 241.296 155.989C240.851 156.399 240.35 156.713 239.793 156.93C239.236 157.141 238.606 157.246 237.903 157.246C236.345 157.246 235.126 156.736 234.247 155.717C233.368 154.691 232.929 153.534 232.929 152.245C232.929 151.032 233.301 149.951 234.045 149.002C234.988 147.795 236.251 147.191 237.833 147.191C239.462 147.191 240.763 147.81 241.735 149.046C242.427 149.919 242.778 151.009 242.79 152.315H234.194C234.218 153.429 234.572 154.343 235.258 155.058C235.943 155.767 236.79 156.121 237.798 156.121C238.284 156.121 238.756 156.036 239.213 155.866C239.676 155.696 240.068 155.471 240.391 155.189C240.713 154.908 241.062 154.454 241.437 153.827ZM241.437 151.252C241.272 150.596 241.032 150.071 240.716 149.679C240.405 149.286 239.992 148.97 239.477 148.729C238.961 148.489 238.419 148.369 237.851 148.369C236.913 148.369 236.107 148.671 235.434 149.274C234.941 149.714 234.569 150.373 234.317 151.252H241.437ZM120.367 169.191C121.838 169.191 123.057 169.725 124.023 170.791C124.902 171.764 125.342 172.915 125.342 174.245C125.342 175.581 124.876 176.75 123.944 177.752C123.019 178.748 121.826 179.246 120.367 179.246C118.902 179.246 117.704 178.748 116.772 177.752C115.847 176.75 115.384 175.581 115.384 174.245C115.384 172.921 115.823 171.772 116.702 170.8C117.669 169.728 118.891 169.191 120.367 169.191ZM120.367 170.396C119.348 170.396 118.472 170.773 117.739 171.529C117.007 172.285 116.641 173.199 116.641 174.271C116.641 174.963 116.808 175.607 117.142 176.205C117.476 176.803 117.927 177.266 118.495 177.594C119.063 177.916 119.688 178.077 120.367 178.077C121.047 178.077 121.671 177.916 122.239 177.594C122.808 177.266 123.259 176.803 123.593 176.205C123.927 175.607 124.094 174.963 124.094 174.271C124.094 173.199 123.725 172.285 122.986 171.529C122.254 170.773 121.381 170.396 120.367 170.396ZM126.563 169.438H132.856V170.501H130.325V179H129.086V170.501H126.563V169.438ZM141.479 166.071H144.019V179H142.735V167.337H140.705L141.479 166.071ZM148.703 172.54C148.703 170.835 148.885 169.517 149.248 168.585C149.617 167.653 150.136 166.947 150.804 166.467C151.472 165.986 152.219 165.746 153.045 165.746C153.883 165.746 154.642 165.989 155.321 166.476C156.001 166.956 156.537 167.68 156.93 168.646C157.328 169.613 157.527 170.911 157.527 172.54C157.527 174.163 157.331 175.455 156.938 176.416C156.552 177.377 156.016 178.104 155.33 178.596C154.645 179.082 153.883 179.325 153.045 179.325C152.219 179.325 151.475 179.088 150.812 178.613C150.15 178.139 149.632 177.433 149.257 176.495C148.888 175.552 148.703 174.233 148.703 172.54ZM149.925 172.566C149.925 174.025 150.054 175.13 150.312 175.88C150.575 176.624 150.962 177.189 151.472 177.576C151.981 177.963 152.521 178.156 153.089 178.156C153.663 178.156 154.199 177.969 154.697 177.594C155.195 177.213 155.573 176.645 155.831 175.889C156.153 174.969 156.314 173.861 156.314 172.566C156.314 171.266 156.171 170.202 155.884 169.376C155.597 168.544 155.198 167.938 154.688 167.557C154.185 167.17 153.651 166.977 153.089 166.977C152.515 166.977 151.976 167.17 151.472 167.557C150.968 167.938 150.584 168.503 150.32 169.253C150.057 169.997 149.925 171.102 149.925 172.566ZM163.68 172.54C163.68 170.835 163.861 169.517 164.225 168.585C164.594 167.653 165.112 166.947 165.78 166.467C166.448 165.986 167.195 165.746 168.021 165.746C168.859 165.746 169.618 165.989 170.298 166.476C170.978 166.956 171.514 167.68 171.906 168.646C172.305 169.613 172.504 170.911 172.504 172.54C172.504 174.163 172.308 175.455 171.915 176.416C171.528 177.377 170.992 178.104 170.307 178.596C169.621 179.082 168.859 179.325 168.021 179.325C167.195 179.325 166.451 179.088 165.789 178.613C165.127 178.139 164.608 177.433 164.233 176.495C163.864 175.552 163.68 174.233 163.68 172.54ZM164.901 172.566C164.901 174.025 165.03 175.13 165.288 175.88C165.552 176.624 165.938 177.189 166.448 177.576C166.958 177.963 167.497 178.156 168.065 178.156C168.64 178.156 169.176 177.969 169.674 177.594C170.172 177.213 170.55 176.645 170.808 175.889C171.13 174.969 171.291 173.861 171.291 172.566C171.291 171.266 171.147 170.202 170.86 169.376C170.573 168.544 170.175 167.938 169.665 167.557C169.161 167.17 168.628 166.977 168.065 166.977C167.491 166.977 166.952 167.17 166.448 167.557C165.944 167.938 165.561 168.503 165.297 169.253C165.033 169.997 164.901 171.102 164.901 172.566ZM173.664 172.54C173.664 170.835 173.846 169.517 174.209 168.585C174.578 167.653 175.097 166.947 175.765 166.467C176.433 165.986 177.18 165.746 178.006 165.746C178.844 165.746 179.603 165.989 180.282 166.476C180.962 166.956 181.498 167.68 181.891 168.646C182.289 169.613 182.488 170.911 182.488 172.54C182.488 174.163 182.292 175.455 181.899 176.416C181.513 177.377 180.977 178.104 180.291 178.596C179.605 179.082 178.844 179.325 178.006 179.325C177.18 179.325 176.436 179.088 175.773 178.613C175.111 178.139 174.593 177.433 174.218 176.495C173.849 175.552 173.664 174.233 173.664 172.54ZM174.886 172.566C174.886 174.025 175.015 175.13 175.272 175.88C175.536 176.624 175.923 177.189 176.433 177.576C176.942 177.963 177.481 178.156 178.05 178.156C178.624 178.156 179.16 177.969 179.658 177.594C180.156 177.213 180.534 176.645 180.792 175.889C181.114 174.969 181.275 173.861 181.275 172.566C181.275 171.266 181.132 170.202 180.845 169.376C180.558 168.544 180.159 167.938 179.649 167.557C179.146 167.17 178.612 166.977 178.05 166.977C177.476 166.977 176.937 167.17 176.433 167.557C175.929 167.938 175.545 168.503 175.281 169.253C175.018 169.997 174.886 171.102 174.886 172.566ZM183.648 172.54C183.648 170.835 183.83 169.517 184.193 168.585C184.562 167.653 185.081 166.947 185.749 166.467C186.417 165.986 187.164 165.746 187.99 165.746C188.828 165.746 189.587 165.989 190.267 166.476C190.946 166.956 191.482 167.68 191.875 168.646C192.273 169.613 192.473 170.911 192.473 172.54C192.473 174.163 192.276 175.455 191.884 176.416C191.497 177.377 190.961 178.104 190.275 178.596C189.59 179.082 188.828 179.325 187.99 179.325C187.164 179.325 186.42 179.088 185.758 178.613C185.096 178.139 184.577 177.433 184.202 176.495C183.833 175.552 183.648 174.233 183.648 172.54ZM184.87 172.566C184.87 174.025 184.999 175.13 185.257 175.88C185.521 176.624 185.907 177.189 186.417 177.576C186.927 177.963 187.466 178.156 188.034 178.156C188.608 178.156 189.145 177.969 189.643 177.594C190.141 177.213 190.519 176.645 190.776 175.889C191.099 174.969 191.26 173.861 191.26 172.566C191.26 171.266 191.116 170.202 190.829 169.376C190.542 168.544 190.144 167.938 189.634 167.557C189.13 167.17 188.597 166.977 188.034 166.977C187.46 166.977 186.921 167.17 186.417 167.557C185.913 167.938 185.529 168.503 185.266 169.253C185.002 169.997 184.87 171.102 184.87 172.566ZM199.8 179V166.148H203.184C204.756 166.148 205.92 166.466 206.676 167.102C207.444 167.738 207.828 168.662 207.828 169.874C207.828 170.69 207.642 171.392 207.27 171.98C206.898 172.556 206.346 173 205.614 173.312C204.894 173.624 204 173.78 202.932 173.78H201.42V179H199.8ZM198.234 176.552V175.382H204.39V176.552H198.234ZM198.234 173.78V172.412H202.356V173.78H198.234ZM202.698 172.412C203.43 172.412 204.048 172.334 204.552 172.178C205.068 172.022 205.464 171.764 205.74 171.404C206.016 171.044 206.154 170.552 206.154 169.928C206.154 169.112 205.902 168.506 205.398 168.11C204.894 167.714 204.108 167.516 203.04 167.516H201.42V172.412H202.698Z" fill="white"/>
<path d="M308 203V97H328L308 203Z" fill="#0081B9"/>
<path d="M15 223V203L308 203L15 223Z" fill="#0081B9"/>
<rect x="108" width="112" height="112" rx="56" fill="white"/>
<path d="M175.997 35.0004L172.692 47.4886C172.356 48.7574 173.312 50.0004 174.625 50.0004H190.661L179.389 35.7591C179.009 35.2799 178.432 35.0004 177.82 35.0004H175.997Z" fill="#C1E5FA"/>
<path d="M185.435 71.6412C184.3 75.506 180.378 77.9044 176.674 76.9983C172.969 76.0922 170.886 72.2246 172.02 68.3599C173.155 64.4952 177.077 62.0967 180.781 63.0028C184.486 63.9089 186.569 67.7765 185.435 71.6412Z" fill="#C1E5FA"/>
<path d="M153.435 71.6412C152.3 75.506 148.378 77.9044 144.674 76.9983C140.969 76.0922 138.886 72.2246 140.02 68.3599C141.155 64.4952 145.077 62.0967 148.781 63.0028C152.486 63.9089 154.569 67.7765 153.435 71.6412Z" fill="#C1E5FA"/>
<path fill-rule="evenodd" clip-rule="evenodd" d="M181.819 33.0001H179.248C179.233 32.9998 179.219 32.9998 179.204 33.0001H149.227C148.674 33.0001 148.227 33.4478 148.227 34.0001C148.227 34.5524 148.674 35.0001 149.227 35.0001H177.927L174.757 46.9766C174.085 49.5142 175.999 52.0001 178.624 52.0001H196.727C196.772 52.0001 196.816 51.9971 196.86 51.9913C197.054 52.12 197.23 52.2372 197.433 52.3878C198.121 52.9008 198.931 53.7964 199.517 54.7855C200.114 55.7926 200.355 56.6841 200.252 57.272L197.377 67.5394C197.135 68.4031 196.348 69.0001 195.451 69.0001H191.711C191.495 65.3441 189.024 62.1653 185.294 61.2529C180.531 60.0879 175.521 63.0598 174.103 67.8907C173.994 68.2609 173.91 68.6313 173.849 69.0001H159.711C159.495 65.3441 157.024 62.1653 153.294 61.2529C148.531 60.0879 143.521 63.0598 142.103 67.8907C141.994 68.2609 141.91 68.6313 141.849 69.0001H134.727C134.174 69.0001 133.727 69.4478 133.727 70.0001C133.727 70.5524 134.174 71.0001 134.727 71.0001H141.742C141.958 74.6562 144.429 77.835 148.159 78.7473C152.922 79.9123 157.932 76.9405 159.35 72.1095C159.459 71.7394 159.543 71.369 159.604 71.0001H173.742C173.958 74.6562 176.429 77.835 180.159 78.7473C184.922 79.9123 189.932 76.9405 191.35 72.1095C191.459 71.7394 191.543 71.369 191.604 71.0001H195.451C197.245 71.0001 198.819 69.806 199.303 68.0786L202.2 57.7333L202.207 57.6962C202.473 56.368 201.92 54.918 201.238 53.7659C200.533 52.5775 199.553 51.4736 198.627 50.7839C198.404 50.6173 198.114 50.4237 197.855 50.2509C197.698 50.1459 197.552 50.0486 197.44 49.9699C197.078 49.715 196.804 49.4869 196.61 49.2414L184.956 34.5176C184.197 33.5591 183.042 33.0001 181.819 33.0001ZM176.691 47.4883L179.996 35.0001H181.819C182.431 35.0001 183.008 35.2796 183.387 35.7589L194.66 50.0001H178.624C177.311 50.0001 176.355 48.7572 176.691 47.4883ZM148.672 76.9981C152.377 77.9042 156.299 75.5057 157.434 71.641C158.568 67.7762 156.485 63.9087 152.78 63.0026C149.076 62.0965 145.154 64.4949 144.019 68.3597C142.885 72.2244 144.968 76.092 148.672 76.9981ZM180.672 76.9981C184.377 77.9042 188.299 75.5057 189.434 71.641C190.568 67.7762 188.485 63.9087 184.78 63.0026C181.076 62.0965 177.154 64.4949 176.019 68.3597C174.885 72.2244 176.968 76.092 180.672 76.9981Z" fill="#134B80"/>
<path d="M138.727 42.5001C138.174 42.5001 137.727 42.9478 137.727 43.5001C137.727 44.0524 138.174 44.5001 138.727 44.5001H151.727C152.279 44.5001 152.727 44.0524 152.727 43.5001C152.727 42.9478 152.279 42.5001 151.727 42.5001H138.727Z" fill="#134B80"/>
<path d="M125.727 53.0001C125.727 52.4478 126.174 52.0001 126.727 52.0001H142.727C143.279 52.0001 143.727 52.4478 143.727 53.0001C143.727 53.5524 143.279 54.0001 142.727 54.0001H126.727C126.174 54.0001 125.727 53.5524 125.727 53.0001Z" fill="#134B80"/>
<path d="M130.727 60.0001C130.174 60.0001 129.727 60.4478 129.727 61.0001C129.727 61.5524 130.174 62.0001 130.727 62.0001H140.227C140.779 62.0001 141.227 61.5524 141.227 61.0001C141.227 60.4478 140.779 60.0001 140.227 60.0001H130.727Z" fill="#134B80"/>
<path d="M138.727 42.5004C138.174 42.5004 137.727 42.9481 137.727 43.5004C137.727 44.0527 138.174 44.5004 138.727 44.5004H151.727C152.279 44.5004 152.727 44.0527 152.727 43.5004C152.727 42.9481 152.279 42.5004 151.727 42.5004H138.727Z" fill="#EE771C"/>
<path d="M125.727 53.0004C125.727 52.4481 126.174 52.0004 126.727 52.0004H142.727C143.279 52.0004 143.727 52.4481 143.727 53.0004C143.727 53.5527 143.279 54.0004 142.727 54.0004H126.727C126.174 54.0004 125.727 53.5527 125.727 53.0004Z" fill="#EE771C"/>
<path d="M130.727 60.0004C130.174 60.0004 129.727 60.4481 129.727 61.0004C129.727 61.5527 130.174 62.0004 130.727 62.0004H140.227C140.779 62.0004 141.227 61.5527 141.227 61.0004C141.227 60.4481 140.779 60.0004 140.227 60.0004H130.727Z" fill="#EE771C"/>
</svg>
