<svg width="18" height="18" viewBox="0 0 18 18" fill="none" xmlns="http://www.w3.org/2000/svg">
<g id="icon">
<g id="Subtract">
<path d="M10.2246 8.18159C10.3865 8.42381 10.4729 8.70857 10.4729 8.99988C10.4724 9.39036 10.3171 9.76473 10.041 10.0409C9.76485 10.317 9.39049 10.4723 9 10.4727C8.70869 10.4728 8.42393 10.3864 8.18171 10.2245C7.9395 10.0627 7.75071 9.83267 7.63923 9.56354C7.52775 9.2944 7.49858 8.99826 7.55541 8.71255C7.61223 8.42684 7.75251 8.16439 7.95849 7.95841C8.16448 7.75242 8.42692 7.61214 8.71263 7.55531C8.99834 7.49848 9.29448 7.52764 9.56362 7.63912C9.83275 7.7506 10.0628 7.93938 10.2246 8.18159Z" fill="#244360"/>
<path fill-rule="evenodd" clip-rule="evenodd" d="M12.6324 7.11845L12.6619 8.99988L12.6324 10.8813C12.6272 11.3441 12.4411 11.7864 12.1138 12.1137C11.7866 12.441 11.3442 12.6271 10.8814 12.6323L9 12.6617L7.11857 12.6323C6.65579 12.6271 6.21343 12.441 5.88618 12.1137C5.55892 11.7864 5.37275 11.3441 5.36751 10.8813L5.33814 8.99988L5.36751 7.11845C5.37276 6.65567 5.55894 6.21333 5.88619 5.88608C6.21345 5.55883 6.65579 5.37266 7.11857 5.36741L9 5.33804L10.8814 5.36741C11.3442 5.37265 11.7866 5.55881 12.1138 5.88607C12.4411 6.21332 12.6272 6.65567 12.6324 7.11845ZM11.7584 6.93807C11.8156 6.85242 11.8461 6.75173 11.8461 6.64874C11.8461 6.51067 11.7912 6.37827 11.6936 6.28064C11.596 6.18301 11.4636 6.12816 11.3255 6.12813C11.2225 6.12811 11.1218 6.15863 11.0362 6.21584C10.9505 6.27305 10.8838 6.35437 10.8443 6.44952C10.8049 6.54468 10.7946 6.64938 10.8147 6.7504C10.8348 6.85142 10.8844 6.94421 10.9572 7.01704C11.03 7.08987 11.1228 7.13947 11.2238 7.15956C11.3248 7.17964 11.4296 7.16932 11.5247 7.1299C11.6199 7.09047 11.7012 7.02372 11.7584 6.93807ZM10.9214 10.2837C11.1753 9.90371 11.3109 9.45693 11.3109 8.99988C11.3102 8.38721 11.0665 7.79983 10.6333 7.36661C10.2 6.93338 9.61267 6.68969 9 6.689C8.54295 6.689 8.09616 6.82452 7.71614 7.07844C7.33611 7.33236 7.03992 7.69327 6.86501 8.11553C6.6901 8.53779 6.64434 9.00243 6.7335 9.4507C6.82266 9.89896 7.04275 10.3107 7.36593 10.6339C7.68911 10.9571 8.10087 11.1772 8.54914 11.2664C8.99741 11.3555 9.46205 11.3098 9.88431 11.1349C10.3066 10.9599 10.6675 10.6638 10.9214 10.2837Z" fill="#244360"/>
<path fill-rule="evenodd" clip-rule="evenodd" d="M9 16.5C13.1421 16.5 16.5 13.1421 16.5 9C16.5 4.85786 13.1421 1.5 9 1.5C4.85786 1.5 1.5 4.85786 1.5 9C1.5 13.1421 4.85786 16.5 9 16.5ZM13.5 8.99988L13.4702 7.10521C13.4625 6.42448 13.1887 5.7738 12.7073 5.29242C12.2259 4.81104 11.5753 4.5372 10.8945 4.52949L9.00656 4.50001L9 4.49988L7.10546 4.52958C6.42471 4.53728 5.77403 4.81112 5.29263 5.2925C4.81122 5.77387 4.53735 6.42455 4.52961 7.10529L4.50013 8.99332L4.5 8.99988L4.52964 10.8945C4.53735 11.5753 4.81122 12.226 5.29262 12.7074C5.77403 13.1887 6.42473 13.4626 7.10548 13.4703L8.99344 13.4997L9 13.4999L10.8946 13.4701C11.5753 13.4624 12.226 13.1886 12.7074 12.7072C13.1888 12.2258 13.4626 11.5751 13.4703 10.8944L13.5 8.99988Z" fill="#244360"/>
</g>
</g>
</svg>
