<svg width="120" height="60" viewBox="0 0 120 60" fill="none" xmlns="http://www.w3.org/2000/svg">
<path fill-rule="evenodd" clip-rule="evenodd" d="M0 0L120 3.825L118.537 54.675L9.15 60L0 0Z" fill="#E85222"/>
<path d="M35.2832 20.6348H38.0566L43.584 35H40.7422L39.6191 32.041H33.7598L32.5879 35H29.7461L35.2832 20.6348ZM36.6895 24.4434L34.7754 29.375H38.5938L36.6895 24.4434ZM45.4199 24.375H48.0859V28.3496L51.7578 24.375H55.0098L50.2734 29.5508L55.0684 35H51.5332L48.3691 31.25L48.0859 31.582V35H45.4199V24.375ZM56.1523 35V24.375H58.8281V32.4414H62.793V24.375H65.4688V32.4414H68.1738V36.8652H65.6348V35H56.1523ZM71.0449 35H69.6289V24.375H72.2266V30.6152L77.666 24.375H78.9453V35H76.3477V28.8867L71.0449 35ZM83.457 30.6445C82.8841 30.4557 82.4121 30.1009 82.041 29.5801C81.6764 29.0527 81.4941 28.4603 81.4941 27.8027C81.4941 27.015 81.7188 26.3249 82.168 25.7324C82.6172 25.14 83.151 24.7656 83.7695 24.6094C84.3945 24.4531 85.3678 24.375 86.6895 24.375H89.3848V35H86.709V31.1523H86.1914L83.6621 35H80.5078L83.457 30.6445ZM86.709 29.1504V26.6016H85.7812C84.7721 26.6016 84.2676 27.0247 84.2676 27.8711C84.2676 28.724 84.8307 29.1504 85.957 29.1504H86.709Z" fill="white"/>
</svg>
