<svg width="18" height="18" viewBox="0 0 18 18" fill="none" xmlns="http://www.w3.org/2000/svg">
<g id="icon">
<path id="svg_2" d="M8.46415 1.51871C6.67357 1.65179 5.04028 2.38804 3.75784 3.64106C2.07097 5.2864 1.2621 7.61615 1.5611 9.95627C1.93443 12.8823 3.99808 15.3192 6.83258 16.1816C9.02413 16.8487 11.4628 16.453 13.3208 15.1308C15.604 13.5045 16.7914 10.8066 16.4388 8.04477C16.0654 5.11876 14.0018 2.68185 11.1673 1.81943C10.3239 1.56192 9.34042 1.45303 8.46415 1.51871ZM9.03623 6.16611C9.41993 6.20413 9.61177 6.26462 9.69819 6.37696C9.72066 6.40807 9.75696 6.48411 9.77769 6.54633C9.82263 6.67768 9.82436 6.82805 9.79671 7.95144C9.77942 8.65313 9.78979 8.86917 9.84683 9.02472C9.91423 9.20273 10.0629 9.28396 10.1942 9.21656C10.3135 9.15434 10.5918 8.84843 10.7732 8.57709C11.1932 7.9549 11.449 7.4727 11.7567 6.72781C11.8189 6.5809 11.9018 6.48411 11.9883 6.46165C12.0228 6.45128 12.512 6.44264 13.1134 6.44091L14.1764 6.43745L14.2662 6.47547C14.382 6.52732 14.427 6.59473 14.427 6.71744C14.427 6.95076 14.1833 7.4295 13.765 8.01539C13.708 8.09662 13.4919 8.38352 13.2863 8.65486C12.8317 9.25285 12.7332 9.39285 12.664 9.53802C12.5776 9.72122 12.5984 9.87158 12.7349 10.0496C12.7747 10.0997 12.9751 10.3019 13.1808 10.499C13.7564 11.0503 14.0173 11.3406 14.2299 11.6586C14.382 11.8885 14.4408 12.0579 14.4166 12.2031C14.4045 12.2826 14.325 12.3776 14.2351 12.4243C14.128 12.4779 13.9638 12.4882 13.0598 12.5003L12.2043 12.5124L12.066 12.4658C11.7135 12.3482 11.4784 12.1529 10.9443 11.5342C10.6488 11.192 10.4293 11.0244 10.2772 11.0226C10.1372 11.0226 9.95917 11.2093 9.88312 11.4409C9.83127 11.5964 9.81226 11.7157 9.79671 11.9853C9.77769 12.3033 9.73967 12.3776 9.54437 12.4589C9.47351 12.49 8.59204 12.5003 8.35872 12.4761C7.89033 12.4243 7.45652 12.2774 7.02616 12.0233C6.40222 11.6569 6.02025 11.3285 5.61063 10.8066C4.89855 9.89751 4.41288 9.12323 3.82352 7.9549C3.59537 7.50036 3.32748 6.91273 3.28427 6.77274C3.24106 6.62756 3.30328 6.50831 3.44501 6.46338C3.4934 6.44782 3.76302 6.43918 4.38523 6.43054L5.25805 6.4219L5.36002 6.45992C5.52076 6.52214 5.58817 6.60164 5.69705 6.86607C5.79038 7.08902 6.29333 8.09835 6.45061 8.38006C6.61135 8.66523 6.78246 8.90374 6.92937 9.04546C7.11085 9.22347 7.19208 9.26668 7.31998 9.25631C7.42886 9.24594 7.45824 9.22174 7.52565 9.07484C7.68984 8.72054 7.71577 7.52282 7.56886 7.05273C7.48417 6.78484 7.358 6.68287 7.00887 6.60855C6.94838 6.59473 6.94838 6.57399 7.00369 6.49276C7.1385 6.29919 7.37874 6.20586 7.83675 6.16784C8.08737 6.1471 8.83056 6.14537 9.03623 6.16611Z" fill="#244360"/>
</g>
</svg>
